<svg xmlns="http://www.w3.org/2000/svg" enable-background="new 0 0 512 512" viewBox="0 0 512 512" id="academic"><path fill="#244659" d="M380.902,343.838L296,312h-80l-84.902,31.838C105.174,353.56,88,378.342,88,406.029V488h336v-81.971
	C424,378.342,406.826,353.56,380.902,343.838z"></path><path fill="#1B3442" d="M105.578,361.029C94.52,373.037,88,388.979,88,406.029V488h91.274
		C126.191,464.738,110.198,402.837,105.578,361.029z"></path><polygon fill="#EDCA6F" points="356.89 334.83 336 488 176 488 155.11 334.83 216 312 296 312"></polygon><path fill="#FF7E64" d="M400,216c-4.418,0-8-3.582-8-8v-96c0-4.418,3.582-8,8-8s8,3.582,8,8v96C408,212.418,404.418,216,400,216z"></path><polygon fill="#244659" points="64 100 256 24 448 100 256 176"></polygon><path fill="#EACCB6" d="M178.166 220.542L192 224v-56h-22.785c-9.012 0-15.867 8.092-14.385 16.981l2.091 12.548C158.791 208.745 167.135 217.784 178.166 220.542zM333.834 220.542L320 224v-56h22.785c9.012 0 15.867 8.092 14.385 16.981l-2.091 12.548C353.209 208.745 344.865 217.784 333.834 220.542zM256 368L256 368c-22.091 0-40-17.909-40-40v-88h80v88C296 350.091 278.091 368 256 368z"></path><path fill="#C5AC99" d="M222.75,240H216v88c0,22.091,17.909,40,40,40l0,0c0.488,0,0.971-0.02,1.455-0.037
		C225.827,337.528,222.154,274.563,222.75,240z"></path><path fill="#F5D6BF" d="M184,136v69.531c0,39.695,25.4,74.936,63.058,87.489l0,0c5.804,1.935,12.08,1.935,17.884,0l0,0
	C302.6,280.467,328,245.226,328,205.531V136H184z"></path><path fill="#5FB9ED" d="M336.199,173.367l-12.418-2.07c-44.878-7.48-90.684-7.48-135.562,0l-12.418,2.07
	c-8.271,1.379-15.801-5-15.801-13.385v-52.485c0-6.634,4.796-12.295,11.339-13.385l16.88-2.813c44.878-7.48,90.684-7.48,135.562,0
	l16.88,2.813c6.543,1.091,11.339,6.752,11.339,13.385v52.485C352,168.367,344.47,174.745,336.199,173.367z"></path><path fill="#244659" d="M411.698,248h-23.395c-6.493,0-11.481-5.751-10.563-12.179l5.085-35.595c0.674-4.72,4.717-8.226,9.485-8.226
	h15.381c4.768,0,8.81,3.506,9.485,8.226l5.085,35.595C423.178,242.249,418.191,248,411.698,248z"></path><polygon fill="#244659" points="360 328 256 392 256 352 312 304"></polygon><polygon fill="#244659" points="152 328 256 392 256 352 200 304"></polygon><polygon fill="#346581" points="224 464 256 416 288 464 256 488"></polygon><rect width="33.941" height="33.941" x="239.029" y="383.029" fill="#994C3C" transform="rotate(-45.001 255.997 400.005)"></rect><path fill="#4C351F" d="M256 263.797c-8.43 0-16.277-3.771-22.095-10.615-2.862-3.367-2.453-8.416.914-11.277 3.366-2.86 8.415-2.451 11.276.914 2.729 3.21 6.247 4.979 9.905 4.979s7.176-1.769 9.905-4.979c2.86-3.366 7.909-3.776 11.276-.914 3.367 2.861 3.776 7.91.914 11.277C272.277 260.026 264.43 263.797 256 263.797zM304.004 200c-2.3 0-4.583-.986-6.165-2.896C295.113 193.812 291.619 192 288 192s-7.113 1.812-9.839 5.104c-2.818 3.403-7.861 3.875-11.264 1.058-3.402-2.819-3.876-7.862-1.057-11.265C271.66 179.87 279.53 176 288 176s16.34 3.87 22.161 10.896c2.819 3.402 2.345 8.445-1.057 11.265C307.611 199.397 305.802 200 304.004 200zM240.004 200c-2.3 0-4.583-.986-6.165-2.896C231.113 193.812 227.619 192 224 192s-7.113 1.812-9.839 5.104c-2.819 3.403-7.861 3.875-11.264 1.058-3.402-2.819-3.876-7.862-1.057-11.265C207.66 179.87 215.53 176 224 176s16.34 3.87 22.161 10.896c2.819 3.402 2.345 8.445-1.057 11.265C243.611 199.397 241.802 200 240.004 200z"></path><path d="M450.944,92.562l-192-76c-1.892-0.748-3.997-0.748-5.889,0l-192,76C58.004,93.77,56,96.719,56,100s2.004,6.23,5.056,7.438
		L152,143.437v16.544c0,2.341,0.38,4.633,1.1,6.801c-0.383,0.388-0.76,0.784-1.116,1.204c-4.3,5.075-6.138,11.749-5.045,18.311
		l2.091,12.548c2.395,14.363,13.069,25.927,27.196,29.458l2.532,0.633c4.624,19.327,14.877,36.702,29.242,50.039v21.346
		l-2.793-2.395c-2.445-2.095-5.905-2.521-8.784-1.081l-48,24c-2.597,1.299-4.287,3.902-4.415,6.804
		c-0.041,0.92,0.094,1.818,0.354,2.672l-16.073,6.027C99.406,347.179,80,375.182,80,406.029V488c0,4.418,3.582,8,8,8h336
		c4.418,0,8-3.582,8-8v-81.971c0-30.848-19.406-58.851-48.289-69.682l-16.073-6.027c0.26-0.854,0.395-1.752,0.354-2.672
		c-0.127-2.901-1.817-5.505-4.415-6.804l-48-24c-2.878-1.439-6.34-1.014-8.784,1.081L304,300.32v-21.346
		c14.365-13.337,24.618-30.712,29.242-50.039l2.532-0.633c14.126-3.531,24.801-15.095,27.195-29.458l2.091-12.548
		c1.093-6.562-0.745-13.235-5.045-18.311c-0.356-0.421-0.731-0.82-1.114-1.209c0.718-2.167,1.098-4.457,1.098-6.795v-16.544
		l32-12.667v53.244c-8.559,0.153-15.88,6.578-17.095,15.079l-5.085,35.597c-0.766,5.36,0.83,10.781,4.378,14.873
		c3.548,4.091,8.688,6.437,14.104,6.437h23.396c5.415,0,10.556-2.346,14.104-6.437c3.548-4.092,5.144-9.513,4.378-14.873
		l-5.085-35.597c-1.215-8.501-8.535-14.926-17.095-15.079v-59.577l42.944-16.999C453.996,106.23,456,103.281,456,100
		S453.996,93.77,450.944,92.562z M164.812,196.214l-2.091-12.548c-0.334-2.005,0.274-3.555,0.907-4.563
		c3.064,1.595,6.46,2.45,9.927,2.45c0.812,0,1.628-0.063,2.444-0.156v24.135c0,1.954,0.076,3.894,0.187,5.825
		C170.234,208.496,165.927,202.898,164.812,196.214z M198.827,313.531L248,355.68v17.006l-3.094,3.094l-76.465-47.056
		L198.827,313.531z M224,314.035v-22.962c6.366,3.88,13.229,7.104,20.528,9.537c3.699,1.232,7.585,1.849,11.472,1.849
		c3.886,0,7.773-0.616,11.472-1.849c7.299-2.433,14.162-5.657,20.528-9.537v22.962l-32,27.428L224,314.035z M268.687,400
		l-8.936,8.936C258.612,408.331,257.328,408,256,408s-2.612,0.331-3.751,0.936L243.313,400L256,387.313L268.687,400z M96,480
		v-73.971c0-24.216,15.234-46.198,37.907-54.701l14.63-5.486L166.835,480H96z M182.983,480L164.59,345.142l68.686,42.268
		l-6.933,6.933c-3.125,3.125-3.125,8.189,0,11.314l16.162,16.163l-25.162,37.743c-2.355,3.532-1.541,8.29,1.856,10.838L232,480
		H182.983z M256,478l-21.146-15.859l20.141-30.211c0.334,0.042,0.669,0.071,1.005,0.071s0.671-0.029,1.005-0.071l20.141,30.211
		L256,478z M378.093,351.328C400.764,359.832,416,381.815,416,406.029V480h-70.835l18.297-134.158L378.093,351.328z M329.017,480
		H280l12.8-9.6c3.397-2.548,4.212-7.306,1.856-10.838l-25.162-37.743l16.162-16.163c3.125-3.125,3.125-8.189,0-11.314l-6.933-6.933
		l68.686-42.269L329.017,480z M313.173,313.531l30.386,15.192l-76.465,47.056L264,372.686V355.68L313.173,313.531z M320,205.531
		c0,36.308-23.143,68.417-57.588,79.898c-4.135,1.379-8.689,1.379-12.824,0C215.143,273.948,192,241.839,192,205.531v-26.728
		c42.483-6.814,85.517-6.814,128,0V205.531z M325.096,163.405c-22.925-3.82-46.01-5.73-69.096-5.73s-46.171,1.91-69.096,5.73
		l-12.418,2.07c-2.216,0.364-3.781-0.622-4.516-1.244c-0.736-0.624-1.97-2.004-1.97-4.25v-52.485c0-2.734,1.958-5.045,4.655-5.494
		l16.879-2.813c44.104-7.352,88.829-7.352,132.931,0l16.88,2.813c2.697,0.449,4.655,2.76,4.655,5.494v52.485
		c0,2.246-1.234,3.626-1.97,4.25c-0.736,0.623-2.299,1.606-4.516,1.244c0-0.001,0-0.001,0-0.001L325.096,163.405z M349.279,183.666
		l-2.091,12.548c-1.114,6.685-5.422,12.282-11.375,15.143c0.111-1.932,0.187-3.871,0.187-5.825v-24.119
		c4.298,0.489,8.599-0.325,12.381-2.294C349.012,180.127,349.611,181.672,349.279,183.666z M409.256,201.356l5.085,35.596
		c0.15,1.05-0.328,1.783-0.626,2.128c-0.298,0.344-0.957,0.92-2.017,0.92h-23.396c-1.06,0-1.719-0.576-2.017-0.92
		c-0.298-0.345-0.776-1.078-0.626-2.128l5.085-35.595c0.111-0.774,0.784-1.357,1.565-1.357h15.381
		C408.472,200,409.145,200.583,409.256,201.356z M360,126.229v-18.733c0-10.588-7.58-19.536-18.024-21.277l-16.88-2.813
		c-45.85-7.641-92.344-7.641-138.192,0l-16.88,2.814C159.58,87.96,152,96.908,152,107.496v18.733L85.736,100L256,32.604L426.264,100
		L360,126.229z"></path><path d="M277.181 241.904c-3.367-2.862-8.416-2.452-11.276.914-2.729 3.21-6.247 4.979-9.905 4.979s-7.176-1.769-9.905-4.979c-2.861-3.365-7.91-3.774-11.276-.914-3.367 2.861-3.776 7.91-.914 11.277 5.818 6.845 13.666 10.615 22.095 10.615s16.277-3.771 22.095-10.615C280.957 249.814 280.548 244.766 277.181 241.904zM266.896 198.161c3.403 2.817 8.446 2.346 11.264-1.058 2.727-3.291 6.221-5.104 9.839-5.104s7.113 1.812 9.839 5.104c1.582 1.91 3.865 2.896 6.165 2.896 1.798 0 3.606-.603 5.099-1.839 3.402-2.819 3.876-7.862 1.057-11.265C304.34 179.87 296.47 176 288 176s-16.34 3.87-22.161 10.896C263.021 190.299 263.494 195.342 266.896 198.161zM233.839 197.104c1.582 1.91 3.865 2.896 6.165 2.896 1.798 0 3.606-.603 5.099-1.839 3.402-2.819 3.876-7.862 1.057-11.265C240.34 179.87 232.47 176 224 176s-16.34 3.87-22.161 10.896c-2.819 3.402-2.345 8.445 1.057 11.265 3.403 2.817 8.445 2.346 11.264-1.058 2.727-3.291 6.221-5.104 9.839-5.104S231.113 193.812 233.839 197.104z"></path></svg>