<svg width="512" height="512" viewBox="0 0 512 512" fill="none" xmlns="http://www.w3.org/2000/svg">
<path d="M507 30C507 16.2 495.8 5 482 5C468.2 5 457 16.2 457 30V31.5L450.9 33.1C434.4 37.5 416.9 36.9 400.7 31.1L397.2 29.9C378.9 23.4 359 23.4 340.7 29.9C322.4 36.4 302.5 36.4 284.2 29.9C265.9 23.4 246 23.4 227.7 29.9C209.4 36.4 189.5 36.4 171.2 29.9C152.9 23.4 133 23.4 114.7 29.9L111.2 31.1C95 36.8 77.5 37.5 61 33.1L55 31.5V30C55 16.2 43.8 5 30 5C16.2 5 5 16.2 5 30C5 43.8 16.2 55 30 55H31.5L33.1 61.1C37.5 77.6 36.9 95.1 31.1 111.3L29.9 114.8C23.4 133.1 23.4 153 29.9 171.3C36.4 189.6 36.4 209.5 29.9 227.8C23.4 246.1 23.4 266 29.9 284.3C36.4 302.6 36.4 322.5 29.9 340.8C23.4 359.1 23.4 379 29.9 397.3L31.1 400.8C36.8 417 37.5 434.5 33.1 451L31.5 457.1H30C16.2 457.1 5 468.3 5 482.1C5 495.9 16.2 507.1 30 507.1C43.8 507.1 55 495.9 55 482.1V480.6L61.1 479C77.6 474.6 95.1 475.2 111.3 481L114.8 482.2C133.1 488.7 153 488.7 171.3 482.2C189.6 475.7 209.5 475.7 227.8 482.2C246.1 488.7 266 488.7 284.3 482.2C302.6 475.7 322.5 475.7 340.8 482.2C359.1 488.7 379 488.7 397.3 482.2L400.8 481C417 475.3 434.5 474.6 451 479L457.1 480.6V482.1C457.1 495.9 468.3 507.1 482.1 507.1C495.9 507.1 507.1 495.9 507.1 482.1C507.1 468.3 495.9 457.1 482.1 457.1H480.5L479 451.5C474.5 435 475.2 417.5 480.8 401.4L482.3 397.2C488.7 379 488.6 359.2 482.2 341L482.1 340.8C475.6 322.5 475.6 302.6 482.1 284.3C488.6 266 488.6 246.1 482.1 227.8C475.6 209.5 475.6 189.6 482.1 171.3C488.6 153 488.6 133.1 482.1 114.8L480.9 111.3C475.2 95.1 474.5 77.6 478.9 61.1L480.5 55H482C495.8 55 507 43.8 507 30Z" fill="#FFCB5C"/>
<path d="M447 65H65V447H447V65Z" fill="#FFE3A8"/>
<path d="M369.4 275.2H284.1C271.9 275.2 262 265.3 262 253.1V174.8C262 148.4 283.4 127 309.8 127H351.6C378 127 399.4 148.4 399.4 174.8V245.2C399.4 261.8 386 275.2 369.4 275.2Z" fill="#FFB20F"/>
<path d="M330.7 188H385.1C393 188 399.4 194.4 399.4 202.3C399.4 210.2 393 216.6 385.1 216.6H330.7V188Z" fill="#EF917B"/>
<path d="M180.7 216.6H126.3C118.4 216.6 112 210.2 112 202.3C112 194.4 118.4 188 126.3 188H180.7V216.6ZM180.7 188H235.1C243 188 249.4 194.4 249.4 202.3C249.4 210.2 243 216.6 235.1 216.6H180.7V188Z" fill="#E96B4E"/>
<path d="M263.2 447H406V331.1C406 306.8 389.6 285.4 366.1 279.1L351.3 275.1H325L309.1 278.9C282.1 285.3 263.1 309.4 263.1 337.1V447H263.2Z" fill="#D84861"/>
<path d="M325 275.2C327.8 283.7 338.4 286.6 345.1 280.6L351.2 275.2V257.3H325V275.2Z" fill="#EF917B"/>
<path d="M248.8 447H106V331.1C106 306.8 122.4 285.4 145.9 279.1L160.7 275.1H187L202.9 278.9C229.9 285.3 248.9 309.4 248.9 337.1V447H248.8Z" fill="#B2D34B"/>
<path d="M187 275.2C184.2 283.7 173.6 286.6 166.9 280.6L160.8 275.2V257.3H187V275.2Z" fill="#E96B4E"/>
<path d="M180.7 264.5C155 264.5 134.1 243.6 134.1 217.9V145H227.3V217.9C227.3 243.6 206.4 264.5 180.7 264.5Z" fill="#EF917B"/>
<path d="M180.7 264.5C155 264.5 134.1 243.6 134.1 217.9L143.7 226.9C149.6 232.4 158.9 232.1 164.4 226.2C167.2 223.2 171.1 221.5 175.1 221.5H186.3C190.4 221.5 194.2 223.2 197 226.2C202.5 232.1 211.8 232.4 217.7 226.9L227.3 217.9C227.3 243.6 206.4 264.5 180.7 264.5ZM124 178.3L126.3 187.9H134.1L135.3 186.7C143.7 178.3 148.5 166.8 148.5 154.9L180.8 161.6L213 155C213 166.9 217.7 178.4 226.2 186.8L227.4 188H235.2L237.5 178.4C243.7 152.2 223.8 127.1 196.8 127.1H164.8C137.8 127 117.9 152.1 124 178.3Z" fill="#399349"/>
<path d="M330.7 264.5C305 264.5 284.1 243.6 284.1 217.9V145H377.3V217.9C377.3 243.6 356.4 264.5 330.7 264.5Z" fill="#F5B7A9"/>
<path d="M137.1 364.8H106V447H137.1V364.8Z" fill="#EF917B"/>
<path d="M142 339H132V365H142V339Z" fill="#9ABD2E"/>
<path d="M248.8 364.8H232V447H248.8V364.8Z" fill="#EF917B"/>
<path d="M237 339H227V365H237V339Z" fill="#9ABD2E"/>
<path d="M380 339H370V447H380V339Z" fill="#C12944"/>
<path d="M284.9 447H274.9V386.8C274.9 383.3 274.1 379.8 272.7 376.6C269.3 369.3 268.6 361 270.8 353.2L275.2 337.2L284.8 339.8L280.4 355.8C278.9 361.3 279.4 367.2 281.8 372.4C283.9 376.9 285 381.8 285 386.8V447H284.9Z" fill="#C12944"/>
<path d="M262 174.8V253.1C262 265.3 271.9 275.2 284.1 275.2V188C303.8 188 322.7 180.5 337.1 167L342.7 161.7C342.7 176.2 354.5 188 369 188H399.5V174.9C399.5 148.5 378.1 127.1 351.7 127.1H309.9C283.4 127 262 148.4 262 174.8Z" fill="#FFCB5C"/>
</svg>
