<svg width="434" height="434" viewBox="0 0 434 434" fill="none" xmlns="http://www.w3.org/2000/svg">
<path fill-rule="evenodd" clip-rule="evenodd" d="M217 194.396C204.515 194.396 194.396 204.515 194.396 217C194.396 229.485 204.515 239.604 217 239.604C229.485 239.604 239.604 229.485 239.604 217C239.604 204.515 229.485 194.396 217 194.396ZM167.271 217C167.271 189.535 189.535 167.271 217 167.271C244.465 167.271 266.729 189.535 266.729 217C266.729 244.465 244.465 266.729 217 266.729C189.535 266.729 167.271 244.465 167.271 217Z" fill="#854D9C"/>
<path fill-rule="evenodd" clip-rule="evenodd" d="M90.4167 194.396C77.9327 194.396 67.8125 204.515 67.8125 217C67.8125 229.485 77.9327 239.604 90.4167 239.604C102.901 239.604 113.021 229.485 113.021 217C113.021 204.515 102.901 194.396 90.4167 194.396ZM40.6875 217C40.6875 189.535 62.9521 167.271 90.4167 167.271C117.881 167.271 140.146 189.535 140.146 217C140.146 244.465 117.881 266.729 90.4167 266.729C62.9521 266.729 40.6875 244.465 40.6875 217ZM343.583 194.396C331.099 194.396 320.979 204.515 320.979 217C320.979 229.485 331.099 239.604 343.583 239.604C356.068 239.604 366.188 229.485 366.188 217C366.188 204.515 356.068 194.396 343.583 194.396ZM293.854 217C293.854 189.535 316.118 167.271 343.583 167.271C371.048 167.271 393.313 189.535 393.313 217C393.313 244.465 371.048 266.729 343.583 266.729C316.118 266.729 293.854 244.465 293.854 217Z" fill="#CD4ED3"/>
</svg>
