<svg width="384" height="256" viewBox="0 0 384 256" fill="none" xmlns="http://www.w3.org/2000/svg">
<g clip-path="url(#clip0_221_55)">
<mask id="mask0_221_55" style="mask-type:luminance" maskUnits="userSpaceOnUse" x="86" y="25" width="204" height="205">
<path d="M86 25H290V230H86V25Z" fill="white"/>
</mask>
<g mask="url(#mask0_221_55)">
<path d="M252.421 149.079C236.316 149.079 214.842 192.237 214.842 203.026C214.842 219.21 225.579 224.605 225.579 224.605H284.632V170.658C284.632 170.658 263.158 149.079 252.421 149.079Z" fill="#2A6797"/>
<path d="M123.579 149.079C139.684 149.079 161.158 192.237 161.158 203.026C161.158 219.21 150.421 224.605 150.421 224.605H91.3687V170.658C91.3687 170.658 112.842 149.079 123.579 149.079Z" fill="#2A6797"/>
<path d="M225.579 89.7367C225.579 86.8752 224.448 84.1309 222.434 82.1074C220.421 80.084 217.69 78.9473 214.842 78.9473C211.995 78.9473 209.264 80.084 207.25 82.1074C205.237 84.1309 204.105 86.8752 204.105 89.7367V50.4792C207.305 48.6073 209.474 45.1654 209.474 41.1841C209.474 38.3226 208.343 35.5782 206.329 33.5548C204.315 31.5314 201.585 30.3946 198.737 30.3946C195.889 30.3946 193.158 31.5314 191.145 33.5548C189.131 35.5782 188 38.3226 188 41.1841C188 38.3226 186.869 35.5782 184.855 33.5548C182.842 31.5314 180.111 30.3946 177.263 30.3946C174.416 30.3946 171.685 31.5314 169.671 33.5548C167.658 35.5782 166.526 38.3226 166.526 41.1841C166.526 45.1654 168.701 48.6073 171.895 50.4792V89.7367C171.895 86.8752 170.764 84.1309 168.75 82.1074C166.737 80.084 164.006 78.9473 161.158 78.9473C158.31 78.9473 155.579 80.084 153.566 82.1074C151.552 84.1309 150.421 86.8752 150.421 89.7367L145.053 151.916V176.053H171.895V181.447H204.105V176.053H230.947V151.916L225.579 89.7367Z" fill="#C1694F"/>
<path d="M220.211 116.711L214.842 51.9737C214.842 49.1121 213.711 46.3678 211.698 44.3444C209.684 42.3209 206.953 41.1842 204.105 41.1842C201.258 41.1842 198.527 42.3209 196.513 44.3444C194.5 46.3678 193.369 49.1121 193.369 51.9737V159.868C193.369 192.237 225.579 208.421 225.579 208.421C225.579 208.421 257.79 186.842 257.79 159.868L220.211 116.711Z" fill="#D79E84"/>
<path d="M171.895 41.1842C169.048 41.1842 166.317 42.3209 164.303 44.3444C162.29 46.3678 161.158 49.1121 161.158 51.9737L155.79 116.711L118.211 159.868C118.211 186.842 150.421 208.421 150.421 208.421C150.421 208.421 182.632 192.237 182.632 159.868V51.9737C182.632 49.1121 181.501 46.3678 179.487 44.3444C177.474 42.3209 174.743 41.1842 171.895 41.1842Z" fill="#D79E84"/>
<path d="M150.421 68.1579L118.211 51.9737L112.842 62.7631L145.053 73.5526L150.421 68.1579Z" fill="#347FFC"/>
<path d="M225.579 68.1579L257.79 51.9737L263.158 62.7631L230.948 73.5526L225.579 68.1579Z" fill="#347FFC"/>
<path d="M139.684 89.7369L107.474 84.3421L102.105 95.1316H139.684V89.7369Z" fill="#347FFC"/>
<path d="M236.316 89.7369L268.526 84.3421L273.895 95.1316H236.316V89.7369Z" fill="#347FFC"/>
</g>
</g>
<defs>
<clipPath id="clip0_221_55">
<rect width="204" height="205" fill="white" transform="translate(86 25)"/>
</clipPath>
</defs>
</svg>
