<svg width="384" height="256" viewBox="0 0 384 256" fill="none" xmlns="http://www.w3.org/2000/svg">
<g clip-path="url(#clip0_227_125)">
<path opacity="0.18" d="M383.916 181.558C383.536 189.48 381.633 197.234 378.323 204.342C372.925 215.749 364.526 225.068 354.584 232.274C349.037 236.265 343.113 239.628 336.909 242.307C333.494 243.794 330.009 245.091 326.468 246.195C305.026 252.871 282.401 253.198 260.083 253.476L103.002 255.43L82.3442 255.683C75.772 255.767 69.0739 255.817 62.4457 255.43C49.8 254.706 37.3874 252.409 26.5036 245.798C20.899 242.371 16.0057 237.77 12.1192 232.274C4.74063 221.913 0.750678 208.701 0.55957 195.534V194.15C0.63881 181.3 4.36773 168.599 12.1239 158.734C12.618 158.109 13.1214 157.489 13.6481 156.889C14.7435 155.629 15.9414 154.409 17.1999 153.189C25.2124 145.497 35.7933 138.603 40.5896 128.694C49.0263 111.257 38.506 104.14 37.1217 87.0345C34.7911 58.2693 62.1614 25.2142 84.3951 12.0169C108.298 -2.20696 138.409 -3.91303 163.607 7.4988C190.269 19.5802 215.15 45.8904 243.275 38.4709C252.318 36.0854 260.624 30.2134 269.942 30.0398C287.16 29.6877 299.111 48.3205 304.472 65.7483C309.832 83.176 312.74 102.845 325.484 115.18C334.629 124.027 347.238 127.355 358.313 133.232C361.676 134.969 364.861 137.072 367.817 139.506C374.342 144.991 378.826 152.436 381.409 160.708C383.458 167.431 384.309 174.502 383.916 181.558Z" fill="#68E1FD"/>
<path opacity="0.18" d="M354.681 232.437C346.045 238.6 336.559 243.295 326.565 246.354C306.522 252.598 285.449 253.297 264.572 253.575L260.195 253.634L202.527 254.353L173.237 254.72L108.041 255.529L103.095 255.588L82.4326 255.846C75.8604 255.931 69.1669 255.975 62.5341 255.588C49.8744 254.884 37.4617 252.588 26.5686 245.972C20.9821 242.537 16.1079 237.933 12.2402 232.437H354.681Z" fill="#68E1FD"/>
<path opacity="0.05" d="M291.122 243.576C291.257 245.645 289.877 247.643 290.269 249.672C290.847 252.647 294.04 252.151 296.902 251.928C303.856 251.323 312.75 250.192 319.522 248.333C325.791 246.607 330.355 244.94 336.33 242.877C336.796 242.714 336.652 241.305 336.675 240.784C336.713 240.095 335.855 239.837 335.207 239.792C329.297 239.589 323.321 239.792 317.523 238.553C314.917 237.987 312.363 237.124 309.72 236.802C306.457 236.41 303.194 236.837 299.931 236.574C297.568 236.38 291.812 233.628 289.616 234.758C286.325 236.489 290.959 241.077 291.122 243.576ZM154.182 245.441C161.01 247.48 166.534 251.794 172.547 255.137C150.813 255.398 129.081 255.666 107.351 255.941C109.174 254.091 111.21 252.494 113.411 251.189C120.556 246.934 128.951 245.952 137.089 245.049C142.776 244.415 148.654 243.795 154.182 245.441ZM265.019 251.551C264.92 252.214 264.653 252.835 264.246 253.347C264.101 253.546 263.979 253.762 263.882 253.991L259.505 254.051L201.828 254.755C202.874 253.891 203.822 252.901 204.653 251.804C205.855 250.217 206.815 248.417 208.214 247.038C212.344 242.961 218.883 243.72 224.234 245.55C225.861 246.116 227.497 246.76 229.212 246.736C232.251 246.696 234.862 244.593 237.602 243.145C246.212 238.572 257.608 241.022 263.873 248.794C264.488 249.597 265.099 250.53 265.019 251.551Z" fill="#000405"/>
<path d="M234.256 182.039L223.596 237.818L216.431 236.946L215.606 236.841C215.606 236.841 217.657 220.306 218.543 196.724C219.126 181.101 221.638 168.346 222.841 157.742C223.213 154.821 223.837 151.942 224.705 149.142C226.159 144.451 228.373 140.062 231.189 140.513C237.407 141.505 245.596 147.223 246.678 150.804C248.561 157.053 234.256 182.039 234.256 182.039Z" fill="#25233A"/>
<path opacity="0.24" d="M226.802 149.301C226.802 149.301 222.025 188.67 221.871 200.954C221.717 213.239 216.967 236.841 216.967 236.841L216.417 236.946L215.592 236.841C215.592 236.841 217.643 220.306 218.529 196.724C219.111 181.101 221.624 168.346 222.826 157.742C223.199 154.821 223.823 151.942 224.691 149.142C225.398 149.109 226.107 149.162 226.802 149.301Z" fill="white"/>
<path d="M258.694 237.729H250.793C250.792 237.713 250.792 237.696 250.793 237.68C250.579 236.544 246.598 215.565 240.972 200.369C236.777 189.037 234.75 165.955 233.981 154.142C233.673 149.678 233.552 146.821 233.552 146.821C233.552 146.821 249.642 141.768 251.73 144.009C253.818 146.251 256.191 156.408 256.191 156.408C256.191 156.408 250.682 196.63 254.187 199.357C257.692 202.085 258.694 237.729 258.694 237.729Z" fill="#3F3D56"/>
<path d="M133.309 76.9716C133.309 76.9716 121.591 80.8152 116.846 116.801C115.131 129.775 126.038 152.693 126.038 152.693L133.309 76.9716Z" fill="#68E1FD"/>
<path opacity="0.61" d="M133.309 76.9716C133.309 76.9716 121.591 80.8152 116.846 116.801C115.131 129.775 126.038 152.693 126.038 152.693L133.309 76.9716Z" fill="url(#paint0_linear_227_125)"/>
<path d="M124.751 148.2C124.033 148.074 123.296 148.132 122.603 148.37C121.909 148.608 121.28 149.019 120.766 149.568C120.252 150.117 119.869 150.789 119.648 151.528C119.428 152.266 119.376 153.05 119.498 153.814C120.393 159.438 122.099 167.245 125.091 171.669C130.139 179.073 137.038 189.29 137.038 189.29L144.17 241.365L152.965 240.1L152.886 190.197L142.958 151.399L124.751 148.2Z" fill="#25233A"/>
<path d="M142.934 151.399L141.792 194.745L122.938 241.399L116.622 238.538L114.786 237.699L125.227 193.956C125.227 193.956 121.162 182.054 118.17 173.375C115.298 165.047 119.204 148.547 119.531 147.218V147.129L142.934 151.399Z" fill="#3F3D56"/>
<path d="M221.009 123.675L197.745 135.945L193.401 130.058L192.287 128.541L212.162 117.059C212.162 117.059 218.99 100.906 220.473 93.4818C220.757 92.1031 221.041 91.0021 221.307 90.0548C221.824 88.3339 226.761 82.2535 228.42 81.8914C230.079 81.5294 228.21 86.9551 229.315 88.3388C230.528 90.2363 231.148 92.4923 231.086 94.7862C231.277 99.3886 221.009 123.675 221.009 123.675Z" fill="#68E1FD"/>
<path d="M251.702 138.043C251.702 138.043 240.147 152.817 226.826 149.301C225.909 149.055 225.011 148.733 224.141 148.339C223.576 148.081 223.065 147.706 222.637 147.236C222.209 146.767 221.872 146.212 221.646 145.603C221.421 144.995 221.31 144.345 221.322 143.691C221.333 143.037 221.466 142.392 221.713 141.792C222.999 138.688 223.036 134.199 222.92 130.058C222.649 120.531 220.384 110.22 220.216 105.93C220.104 103.188 220.519 99.3043 221.279 95.4259C222.617 88.5322 225.031 81.6633 227.483 81.2665C234.773 80.0713 237.271 82.184 237.271 82.184L249.717 89.8762C255.897 96.77 252.886 107.562 251.702 138.043Z" fill="#68E1FD"/>
<path d="M233.436 99.1307L236.619 104.586L227.805 114.074L225.992 116.028L235.57 81.4847L235.608 78.028L236.824 79.3521V79.3571L238.418 81.0929L239.029 95.3962L233.436 99.1307Z" fill="#68E1FD"/>
<path opacity="0.61" d="M250.518 107.279L249.167 144.52C249.167 144.52 230.149 154.137 227.637 143.33C225.693 134.978 230.666 125.451 230.666 125.451L250.518 107.279Z" fill="url(#paint1_linear_227_125)"/>
<path d="M231.79 127.931L226.071 152.435L261.412 160.152L266.492 136.178L231.79 127.931Z" fill="white"/>
<path d="M235.854 72.5626C235.854 72.6717 235.729 78.2214 235.547 81.7526C235.416 84.4853 234.214 86.4096 232.377 88.314C231.31 89.4998 230.027 90.4415 228.606 91.0814C228.263 91.2162 227.891 91.2477 227.531 91.1725C227.172 91.0972 226.839 90.9181 226.569 90.6548C226.299 90.3915 226.102 90.0542 226 89.6798C225.898 89.3054 225.895 88.9083 225.991 88.5322C226.173 87.7982 226.355 86.9452 226.495 86.0525C226.793 84.2125 226.924 82.2188 226.453 80.8103C226.441 80.7579 226.425 80.7065 226.406 80.6565C226.127 79.9275 226.406 79.134 227.04 78.3355C227.93 77.2097 229.487 76.069 231.039 75.1069C232.598 74.1631 234.206 73.3137 235.854 72.5626Z" fill="url(#paint2_linear_227_125)"/>
<path d="M227.511 85.6805C227.192 85.8508 226.854 85.9774 226.504 86.0574C226.803 84.2175 226.933 82.2237 226.462 80.8152L227.05 78.3355L227.493 76.4905L231.049 75.1068L234.652 73.7083C233.785 80.5325 230.354 84.2472 227.511 85.6805Z" fill="url(#paint3_linear_227_125)"/>
<path d="M226.532 53.1709C225.121 53.2631 223.744 53.6646 222.486 54.3502C221.228 55.0358 220.117 55.9908 219.222 57.155C218.327 58.3193 217.669 59.6678 217.287 61.1158C216.905 62.5639 216.809 64.0802 217.005 65.5697C217.33 70.0008 218.407 74.3325 220.184 78.3553C223.535 84.4059 231.953 79.3968 233.281 76.8972C234.61 74.3976 239.621 63.0899 237.504 59.8811C236.106 57.6593 231.995 52.9031 226.532 53.1709Z" fill="url(#paint4_linear_227_125)"/>
<path d="M217.62 48.9058L219.354 49.8481C218.321 49.8259 217.297 50.0652 216.368 50.5463C215.438 51.0274 214.629 51.7366 214.008 52.6155C212.424 54.3062 211.528 56.5915 211.514 58.9785L214.455 57.4907C214.455 57.4907 214.236 61.3541 219.811 61.6368C225.386 61.9195 231.287 62.1328 231.287 62.1328L229.394 59.3505C229.394 59.3505 232.862 60.8384 233.468 62.1824C234.024 64.3656 234.423 66.5905 234.661 68.8381C234.661 68.8381 236.036 65.0242 236.61 65.8623C237.183 66.7005 236.013 70.1523 235.291 70.9111C234.568 71.6699 234.689 73.9414 234.624 74.1298C234.559 74.3183 238.078 71.1988 238.232 70.1275C238.386 69.0563 241.872 58.2247 239.584 55.9632L240.982 55.8491C240.162 55.2595 239.226 54.8762 238.246 54.7282C238.246 54.7282 229.063 41.9922 217.62 48.9058Z" fill="#3F3D56"/>
<path d="M181.384 133.619C182.908 132.203 184.576 130.974 186.358 129.954C187.754 129.43 189.211 129.11 190.688 129.002C190.688 129.002 190.93 131.169 189.756 131.313C188.581 131.457 187.602 133.356 187.602 133.356C187.602 133.356 195.139 136.639 196.179 136.332C197.218 136.024 197.013 137.621 195.107 137.517C193.2 137.413 192.734 140.25 191.415 140.21C190.096 140.171 188.008 141.039 186.069 141.113C184.109 140.939 182.184 140.461 180.354 139.695L181.384 133.619Z" fill="url(#paint5_linear_227_125)"/>
<path d="M152.215 110.587L145.894 148.403C145.894 148.403 143.713 155.639 132.423 154.558C128.293 154.187 124.408 152.317 121.418 149.261L121.237 149.078L121.111 148.939C118.948 146.663 117.255 143.934 116.137 140.924C116.137 140.924 123.39 87.6196 131.006 78.3404C131.766 77.4179 132.526 76.9269 133.29 76.9715C135.377 77.2679 137.369 78.0797 139.107 79.3422C143.993 82.542 147.858 87.236 150.197 92.8105C152.535 98.385 153.238 104.581 152.215 110.587Z" fill="#68E1FD"/>
<path opacity="0.61" d="M140.334 109.337L132.41 154.553C132.41 154.553 144.552 156.329 145.88 148.403L149.623 125.406L140.334 109.337Z" fill="url(#paint6_linear_227_125)"/>
<path d="M133.309 76.9715C133.309 76.9715 134.516 67.2459 135.001 60.9226C135.486 54.5992 137.425 46.1283 147.4 47.2145C157.375 48.3006 157.407 64.3446 154.653 71.0598C151.898 77.775 148.211 77.5816 148.211 77.5816C148.211 77.5816 143.242 76.4309 143.428 82.789L133.309 76.9715Z" fill="url(#paint7_linear_227_125)"/>
<path d="M136.991 45.8705C135.539 47.3555 134.491 49.23 133.957 51.2962C133.509 52.971 133.206 54.6859 133.052 56.4194L134.069 55.2341C134.018 58.2016 133.811 61.1638 133.449 64.1066C133.07 66.8481 132.914 69.6191 132.983 72.389L134.847 72.2898L137.178 75.335L139.751 73.4801L141.685 72.3841L143.41 67.8511C142.982 67.5222 142.668 67.0525 142.516 66.5146C142.364 65.9766 142.383 65.4005 142.571 64.8754C143.204 63.0255 144.78 62.599 145.148 63.69C145.429 65.0495 145.585 66.4347 145.614 67.8263L148.364 59.5389C148.364 59.5389 150.089 56.9649 151.599 58.7355C152.505 59.8065 153.65 60.6182 154.927 61.0962L154.018 58.3586L156.512 59.038L156.316 55.8739L158.181 57.2576C158.181 57.2576 158.996 52.1344 157.416 49.8629C155.836 47.5915 149.544 38.5205 136.991 45.8705Z" fill="#3F3D56"/>
<path d="M181.594 132.592L180.331 139.695L179.991 141.604L157.239 139.799C150.942 139.223 144.762 134.641 143.978 127.94L136.106 98.3669C135.751 97.1544 135.691 95.8659 135.931 94.6219C136.172 93.378 136.705 92.2193 137.48 91.2541C138.256 90.289 139.249 89.549 140.367 89.1033C141.485 88.6576 142.69 88.5208 143.871 88.7058C145.37 88.9432 146.777 89.6236 147.93 90.6696C149.084 91.7156 149.939 93.0852 150.397 94.6225L155.352 121.091C155.643 122.646 156.348 124.078 157.384 125.217C158.42 126.356 159.742 127.153 161.192 127.514L181.594 132.592Z" fill="#68E1FD"/>
<path d="M193.401 130.053L190.231 131.105C190.231 131.105 186.269 131.482 184.95 132.682C183.631 133.882 184.368 134.423 184.368 134.423C184.368 134.423 188.563 133.768 189.467 134.14C190.371 134.512 194.795 136.382 196.193 136.357C197.591 136.332 197.745 135.945 197.745 135.945L193.401 130.053Z" fill="url(#paint8_linear_227_125)"/>
<path d="M183.841 138.886C184.074 138.665 184.353 138.505 184.655 138.419C184.956 138.333 185.273 138.323 185.579 138.39C185.648 138.403 185.711 138.437 185.761 138.489C185.791 138.55 185.807 138.617 185.807 138.685C185.807 138.754 185.791 138.821 185.761 138.881C185.551 139.637 185.216 140.347 184.773 140.979C185.267 140.801 185.495 140.215 185.808 139.774C186.043 139.443 186.346 139.172 186.692 138.982C187.039 138.791 187.422 138.686 187.812 138.673C187.906 138.663 188 138.684 188.082 138.732C188.273 138.871 188.189 139.189 188.082 139.412C187.886 139.828 187.695 140.25 187.5 140.672C187.992 139.91 188.564 139.212 189.206 138.589C189.357 138.414 189.55 138.285 189.765 138.217C189.872 138.181 189.988 138.189 190.091 138.237C190.193 138.285 190.276 138.371 190.324 138.48C190.364 138.612 190.364 138.754 190.324 138.886C190.189 139.459 189.951 140 189.625 140.478C190.019 139.787 190.513 139.166 191.089 138.638C191.13 138.587 191.181 138.548 191.24 138.523C191.298 138.498 191.362 138.488 191.424 138.494C191.495 138.519 191.553 138.573 191.587 138.643C191.783 138.99 191.587 139.432 191.382 139.779C191.005 140.419 190.525 141.103 189.821 141.217C189.662 141.225 189.506 141.255 189.355 141.306C189.247 141.365 189.145 141.437 189.052 141.52C188.809 141.697 188.524 141.795 188.23 141.802C187.936 141.809 187.646 141.725 187.397 141.559C187.057 141.789 186.661 141.908 186.259 141.901C185.856 141.894 185.464 141.761 185.132 141.52C185.058 141.445 184.961 141.399 184.859 141.391C184.758 141.383 184.656 141.413 184.572 141.475C184.269 141.585 183.941 141.592 183.634 141.495C183.327 141.398 183.055 141.202 182.857 140.934C182.438 140.285 183.379 139.298 183.841 138.886Z" fill="url(#paint9_linear_227_125)"/>
<path d="M252.141 151.215L244.356 148.354L244.091 148.255L249.763 128.853C249.763 128.853 242.306 107.056 241.066 100.351C240.666 98.1293 240.647 95.8492 241.01 93.6206C241.193 92.4633 241.7 91.3918 242.465 90.5466C243.23 89.7014 244.218 89.122 245.298 88.8843C246.506 88.6016 247.769 88.777 248.868 89.3803C249.839 89.9163 250.773 90.5228 251.665 91.1954C252.38 91.7482 252.887 92.5532 253.096 93.4669C254.494 99.577 260.12 124.504 260.33 126.869C260.559 129.582 252.141 151.215 252.141 151.215Z" fill="#68E1FD"/>
<path d="M242.058 150C241.676 150.387 241.313 151.082 241.718 151.449C241.816 151.538 241.951 151.587 242.03 151.697C242.226 151.959 241.984 152.326 241.76 152.559L239.896 154.489C239.206 155.198 238.455 156.086 238.614 157.092C238.69 157.451 238.856 157.781 239.094 158.047C239.332 158.313 239.633 158.506 239.965 158.605C240.634 158.79 241.338 158.782 242.002 158.58C241.991 158.789 242.038 158.997 242.136 159.177C242.235 159.358 242.381 159.504 242.557 159.597C242.914 159.776 243.3 159.877 243.694 159.895C244.831 160.11 245.997 160.077 247.12 159.795C247.204 159.929 247.288 160.058 247.377 160.187C248.85 159.909 249.651 158.233 250.173 156.745C250.695 155.257 251.227 153.601 251.674 151.999C251.757 151.783 251.772 151.545 251.716 151.32C251.646 151.187 251.552 151.072 251.438 150.98C251.324 150.889 251.193 150.824 251.054 150.789C249.274 150.07 247.498 149.336 245.713 148.627C244.063 147.972 243.312 148.756 242.058 150Z" fill="url(#paint10_linear_227_125)"/>
<path d="M115.979 238.091L113.299 243.279L115.993 244.92L116.995 244.067L121.339 248.323C121.339 248.323 122.891 249.458 126.69 249.448C130.489 249.439 131.24 248.868 131.24 248.868C131.24 248.868 131.24 242.917 126.578 243.19C121.917 243.462 121.596 240.64 121.596 240.64L115.979 238.091Z" fill="url(#paint11_linear_227_125)"/>
<path d="M145.633 241.206L145.195 248.873H148.458V245.977L152.886 248.853L163.835 248.824C163.835 248.824 163.835 240.888 158.913 241.305C153.99 241.722 152.005 241.305 152.005 241.305L151.226 240.199L145.633 241.206Z" fill="url(#paint12_linear_227_125)"/>
<path d="M258.256 237.709L258.722 245.372H255.459V242.475L251.064 245.382L240.115 245.411C240.115 245.411 240.115 237.476 245.004 237.868C249.894 238.26 251.912 237.868 251.912 237.868L252.681 236.757L258.256 237.709Z" fill="url(#paint13_linear_227_125)"/>
<path d="M222.566 237.804L223.032 245.461H219.769V242.565L215.346 245.481L204.396 245.511C204.396 245.511 204.396 237.575 209.286 237.967C214.176 238.359 216.194 237.967 216.194 237.967L216.963 236.856L222.566 237.804Z" fill="url(#paint14_linear_227_125)"/>
<path d="M233.436 99.1307L236.619 104.586L227.805 114.074L225.992 116.028L235.57 81.4847L235.608 78.028L236.824 79.3521V79.3571L238.418 81.0929L239.029 95.3962L233.436 99.1307Z" fill="#68E1FD"/>
<path d="M226.504 86.0574L225.315 92.0088L225.991 116.023L234.675 84.7134L230.946 87.2229C230.746 87.3568 230.541 87.4808 230.326 87.5949C229.984 87.7783 229.609 87.8838 229.226 87.9045C228.843 87.9252 228.46 87.8607 228.101 87.7151C227.743 87.5695 227.417 87.346 227.144 87.0588C226.872 86.7717 226.658 86.4273 226.518 86.0475L226.504 86.0574Z" fill="white"/>
<path d="M226.56 81.2616L222.687 88.9836L223.973 92.2072L221.871 97.0428L225.978 116.023C225.978 116.023 224.854 92.8222 226.49 86.0475C226.504 86.0574 227.045 82.8139 226.56 81.2616Z" fill="#68E1FD"/>
<path opacity="0.61" d="M233.436 99.1307L236.619 104.586L227.805 114.074L225.992 116.028L235.57 81.4847L235.608 78.028L236.824 79.3521V79.3571L238.418 81.0929L239.029 95.3962L233.436 99.1307Z" fill="url(#paint15_linear_227_125)"/>
<path opacity="0.61" d="M226.56 81.2616L222.687 88.9836L223.973 92.2072L221.871 97.0428L225.978 116.023C225.978 116.023 224.854 92.8222 226.49 86.0475C226.504 86.0574 227.045 82.8139 226.56 81.2616Z" fill="url(#paint16_linear_227_125)"/>
<path d="M132.992 75.3448L144.435 81.4004L147.53 87.7833L131.016 78.3305L132.992 75.3448Z" fill="#68E1FD"/>
<path opacity="0.61" d="M132.992 75.3448L144.435 81.4004L147.53 87.7833L131.016 78.3305L132.992 75.3448Z" fill="url(#paint17_linear_227_125)"/>
<path d="M102.406 159.309V256.02H92.3981V212.148H2.13015C0.793702 206.919 0.0780825 201.532 0 196.114L0 194.745C0.0792396 181.9 3.8035 169.194 11.5643 159.329L102.406 159.309ZM113.084 153.765V159.309H11.5643C12.0558 158.681 12.5624 158.065 13.0839 157.464C14.1839 156.205 15.3772 154.985 16.6403 153.765H113.084ZM57.8682 121.84C56.7216 120.67 55.3512 119.777 54.1393 118.706C53.7105 118.329 53.2584 117.823 53.3423 117.218C53.396 116.984 53.5129 116.771 53.6784 116.606C53.844 116.442 54.0512 116.332 54.2745 116.291C54.7277 116.224 55.1889 116.254 55.6309 116.38L53.0206 113.255C52.7783 112.963 52.5172 112.561 52.6944 112.219C52.8715 111.877 53.3702 111.896 53.7152 112.07C54.027 112.3 54.3904 112.439 54.7686 112.472C53.8363 111.078 52.6524 109.942 51.6596 108.618C50.6668 107.294 49.8697 105.643 50.0189 103.976C50.0213 103.733 50.1019 103.499 50.2473 103.312C50.5456 102.994 51.049 103.128 51.4359 103.312C54.1972 104.59 56.4121 106.917 57.6492 109.838C57.2187 108.416 57.0448 106.92 57.1364 105.429C57.127 105.256 57.1539 105.082 57.2151 104.921C57.2764 104.76 57.3705 104.615 57.4907 104.497C57.9568 104.155 58.5721 104.745 58.8424 105.295C60.6789 109.099 59.3971 113.727 60.1475 117.937C60.2454 116.766 60.7588 115.679 61.5832 114.897C61.8113 117.065 61.7328 119.256 61.3501 121.399C61.9235 121.667 61.8768 122.54 61.7323 123.194C61.547 124.198 61.3136 125.191 61.0332 126.17C60.0077 126.081 59.9891 125.486 59.6675 124.608C59.2626 123.558 58.6488 122.614 57.8682 121.84Z" fill="#68E1FD"/>
<path d="M66.0859 108.876C67.0508 107.711 68.2068 106.605 69.6377 106.287C70.0712 107.175 69.6377 108.271 69.0364 109.05C68.4352 109.828 67.6894 110.538 67.3864 111.46C68.6349 109.874 70.324 108.751 72.2107 108.251C72.8806 108.009 73.6126 108.054 74.2523 108.375C74.3438 108.427 74.4247 108.497 74.4903 108.582C74.556 108.667 74.605 108.766 74.6345 108.871C74.7464 109.417 74.0938 109.744 73.5811 109.863C69.9834 110.872 66.8256 113.177 64.6456 116.385C66.7727 115.017 69.2655 114.436 71.7353 114.733C72.1641 114.788 72.6675 114.927 72.826 115.348C73.073 115.973 72.4065 116.568 71.8005 116.782C69.4699 117.605 66.5521 116.727 64.6689 118.423C65.689 118.307 66.7125 118.608 67.5309 119.266C68.1881 119.797 68.6729 120.883 68.0949 121.508C67.8997 121.671 67.6731 121.785 67.4313 121.844C67.1895 121.902 66.9386 121.902 66.6965 121.845C65.3495 121.721 63.6901 121.483 62.9163 122.664C62.4922 123.313 62.5248 124.151 62.3663 124.945C62.2405 125.575 61.7511 126.691 61.1078 126.076C60.679 125.664 60.8468 124.226 60.8468 123.68C60.8786 118.245 62.7332 113 66.0766 108.891L66.0859 108.876Z" fill="#68E1FD"/>
<path opacity="0.61" d="M57.8684 121.84C56.7217 120.67 55.3514 119.777 54.1395 118.706C53.7106 118.329 53.2585 117.823 53.3424 117.218C53.3962 116.984 53.513 116.771 53.6786 116.606C53.8442 116.442 54.0513 116.332 54.2746 116.291C54.7278 116.224 55.189 116.254 55.631 116.38L53.0208 113.255C52.7784 112.963 52.5174 112.561 52.6945 112.219C52.8716 111.877 53.3704 111.896 53.7153 112.07C54.0271 112.3 54.3905 112.439 54.7687 112.472C53.8365 111.078 52.6526 109.942 51.6597 108.618C50.6669 107.294 49.8698 105.643 50.019 103.976C50.0214 103.733 50.1021 103.499 50.2474 103.312C50.5457 102.994 51.0491 103.128 51.436 103.312C54.1973 104.59 56.4123 106.917 57.6493 109.838C57.2189 108.416 57.0449 106.92 57.1366 105.429C57.1271 105.256 57.154 105.082 57.2153 104.921C57.2765 104.759 57.3706 104.615 57.4908 104.497C57.9569 104.155 58.5722 104.745 58.8426 105.295C60.6791 109.099 59.3972 113.727 60.1477 117.937C60.2455 116.766 60.7589 115.679 61.5833 114.897C61.8115 117.064 61.7329 119.256 61.3503 121.399C61.9236 121.667 61.877 122.54 61.7325 123.194C61.5471 124.198 61.3138 125.191 61.0333 126.17C60.0079 126.081 59.9892 125.486 59.6676 124.608C59.2628 123.558 58.6489 122.614 57.8684 121.84Z" fill="url(#paint18_linear_227_125)"/>
<path opacity="0.61" d="M66.0859 108.876C67.0508 107.711 68.2068 106.605 69.6377 106.287C70.0712 107.175 69.6377 108.271 69.0364 109.05C68.4352 109.828 67.6894 110.538 67.3864 111.46C68.6349 109.874 70.324 108.751 72.2107 108.251C72.8806 108.009 73.6126 108.054 74.2523 108.375C74.3438 108.427 74.4247 108.497 74.4903 108.582C74.556 108.667 74.605 108.766 74.6345 108.871C74.7464 109.417 74.0938 109.744 73.5811 109.863C69.9834 110.872 66.8256 113.177 64.6456 116.385C66.7727 115.017 69.2655 114.436 71.7353 114.733C72.1641 114.788 72.6675 114.927 72.826 115.348C73.073 115.973 72.4065 116.568 71.8005 116.782C69.4699 117.605 66.5521 116.727 64.6689 118.423C65.689 118.307 66.7125 118.608 67.5309 119.266C68.1881 119.797 68.6729 120.883 68.0949 121.508C67.8997 121.671 67.6731 121.785 67.4313 121.844C67.1895 121.902 66.9386 121.902 66.6965 121.845C65.3495 121.721 63.6901 121.483 62.9163 122.664C62.4922 123.313 62.5248 124.151 62.3663 124.945C62.2405 125.575 61.7511 126.691 61.1078 126.076C60.679 125.664 60.8468 124.226 60.8468 123.68C60.8786 118.245 62.7332 113 66.0766 108.891L66.0859 108.876Z" fill="url(#paint19_linear_227_125)"/>
<path d="M67.0649 153.71L61.7326 153.74L56.4561 153.765C44.8498 146.42 58.2413 131.531 58.2413 131.531C58.2413 131.531 58.7727 129.21 58.0782 127.747C57.9201 127.393 57.6693 127.095 57.3557 126.889C55.6451 125.798 58.0316 125.366 58.0316 125.366H65.1911C65.1911 125.366 67.6429 125.585 65.8017 126.958C63.9606 128.332 64.986 131.531 64.986 131.531C79.3331 148.478 67.0649 153.71 67.0649 153.71Z" fill="white"/>
<path opacity="0.51" d="M62.1194 153.294C62.0016 153.453 61.8723 153.602 61.7326 153.74L56.4561 153.765C44.8498 146.42 58.2413 131.531 58.2413 131.531C58.2413 131.531 58.7727 129.21 58.0782 127.747C60.4088 127.559 61.5321 130.758 61.2198 132.791C60.9821 134.358 60.7537 135.93 60.4973 137.498C60.1996 138.963 60.121 140.469 60.2643 141.961C60.5533 143.945 61.616 145.696 62.3105 147.56C63.005 149.425 63.2801 151.707 62.1194 153.294Z" fill="url(#paint20_linear_227_125)"/>
<path opacity="0.61" d="M102.406 159.309L50.2566 175.071C41.2115 177.805 32.8008 182.514 25.5605 188.897C18.3202 195.281 12.409 203.199 8.20363 212.148H2.14413C0.802961 206.919 0.0826428 201.533 0 196.114L0 194.745C0.0792396 181.9 3.8035 169.194 11.5643 159.329L102.406 159.309Z" fill="url(#paint21_linear_227_125)"/>
<path opacity="0.61" d="M92.3979 212.148H97.1803V255.941H92.3979V212.148Z" fill="url(#paint22_linear_227_125)"/>
<path d="M383.352 182.133C382.971 190.055 381.067 197.809 377.759 204.917C376.532 207.506 375.146 210.006 373.61 212.401C368.446 220.475 361.692 227.28 354.033 232.854C348.486 236.842 342.562 240.203 336.358 242.882L324.002 240.457L300.318 235.81C299.158 235.582 298.034 235.438 296.971 235.314C292.604 234.788 289.206 234.53 287.924 229.814C286.335 224.006 287.924 215.119 287.924 209.029C287.924 198.445 288.964 185.843 297.624 180.645C304.812 176.34 313.938 179.381 321.96 177.387C322.734 177.255 323.463 176.914 324.076 176.395C325.008 175.477 325.153 173.99 325.176 172.641C325.377 162.399 322.16 150.913 327.912 142.7C332.312 136.421 340.362 134.69 347.69 133.966C349.945 133.736 352.21 133.632 354.476 133.654C355.576 133.654 356.675 133.703 357.772 133.803C365.365 134.428 372.599 137.021 376.458 143.672C378.523 147.223 379.255 151.439 379.945 155.55C380.257 157.45 380.569 159.364 380.877 161.278C381.902 168.152 382.835 175.15 383.352 182.133Z" fill="#3F3D56"/>
<path d="M383.352 182.133C382.971 190.055 381.067 197.809 377.759 204.917C376.532 207.506 375.147 210.006 373.61 212.401C370.772 213.685 367.355 213.671 364.19 213.72C359.208 213.8 354.238 214.254 349.317 215.079C347.107 215.446 344.805 215.937 343.071 217.445C340.782 219.429 339.99 222.816 339.864 225.965C339.738 229.115 340.134 232.304 339.631 235.413C339.512 236.461 339.137 237.458 338.545 238.305C337.356 239.827 335.282 240.1 333.417 240.224C330.266 240.429 327.114 240.511 323.96 240.472C316.028 240.363 308.122 239.48 300.342 237.833C298.995 237.546 297.424 237.035 296.995 235.641C296.964 235.538 296.942 235.432 296.93 235.324C296.858 234.669 296.915 234.005 297.098 233.375L301.363 213.948C301.941 211.31 302.537 208.622 303.856 206.306C306.485 201.669 311.482 199.298 316.166 197.2L328.779 191.541C332.229 190.004 334.573 189.805 334.266 185.486C333.59 175.934 331.707 166.64 331.707 156.998C331.707 154.231 331.828 151.369 332.947 148.88C334.065 146.39 336.074 144.495 338.139 142.829C343.095 138.899 348.59 135.803 354.43 133.649C355.53 133.649 356.628 133.699 357.725 133.798C365.318 134.423 372.552 137.016 376.412 143.667C378.477 147.218 379.209 151.434 379.898 155.545C380.211 157.445 380.523 159.359 380.831 161.273C381.506 165.623 382.126 170.017 382.625 174.421C382.914 176.98 383.147 179.559 383.352 182.133Z" fill="#25233A"/>
<path d="M383.352 182.133C382.971 190.055 381.067 197.809 377.759 204.917C376.532 207.506 375.146 210.006 373.61 212.401C370.772 213.685 367.355 213.671 364.19 213.72C359.208 213.8 354.238 214.254 349.316 215.079C347.107 215.446 344.804 215.937 343.07 217.445C343.07 217.445 345.965 200.424 357.772 194.691C369.578 188.957 382.625 174.411 382.625 174.411C382.914 176.98 383.147 179.559 383.352 182.133Z" fill="#3F3D56"/>
<path d="M124.234 146.96C124.169 146.9 124.107 146.837 124.047 146.772L124.089 146.811C124.144 146.854 124.192 146.904 124.234 146.96Z" fill="url(#paint23_linear_227_125)"/>
<path opacity="0.24" d="M119.069 139.07C119.069 139.07 119.745 147.05 121.479 149.078C119.268 146.75 117.536 143.958 116.394 140.88C116.394 140.88 123.851 86.3848 131.617 76.9022L133.705 78.0826L119.069 139.07ZM220.225 96.0509L220.333 101.506L213.639 119.435L193.186 130.842L192.039 129.28L212.367 117.535C212.367 117.535 218.711 103.629 220.225 96.0509ZM180.769 139.025L180.424 140.979L157.155 139.134C150.714 138.544 144.393 133.857 143.591 127.008L135.56 96.7551C135.197 95.5138 135.135 94.1949 135.379 92.9211C135.623 91.6473 136.167 90.4599 136.959 89.4696C136.959 89.4696 144.458 126.914 147.213 130.267C149.968 133.619 155.216 135.628 155.216 135.628L180.769 139.025Z" fill="white"/>
<path opacity="0.24" d="M128.937 197.721L116.422 239.778L114.557 238.924L125.236 194.19C125.236 194.19 121.078 182.014 118.02 173.137C115.084 164.621 119.078 147.749 119.419 146.39L121.017 148.151C121.017 148.151 116.822 168.118 122.22 177.61C127.618 187.103 128.937 197.721 128.937 197.721ZM227.115 149.261C226.177 149.007 225.259 148.676 224.369 148.27C223.79 148.007 223.266 147.625 222.827 147.145C222.389 146.665 222.044 146.097 221.812 145.474C221.581 144.851 221.469 144.186 221.481 143.516C221.494 142.847 221.631 142.187 221.885 141.574C223.204 138.4 223.241 133.808 223.12 129.572C222.845 119.832 220.529 109.303 220.356 104.899C220.244 102.097 220.668 98.124 221.442 94.1564L222.906 87.5652C222.906 87.5652 221.563 98.2579 221.218 101.189C220.873 104.12 224.038 120.809 225.185 123.229C226.332 125.649 224.304 139.893 224.579 143.275C224.854 146.658 227.115 149.261 227.115 149.261ZM253.073 237.828L251.166 238.82C250.947 237.655 246.869 216.205 241.121 200.662C236.829 189.071 234.759 165.449 233.953 153.388L236.316 153.884C236.316 153.884 239.821 184.682 243.671 196.069C247.521 207.456 253.073 237.828 253.073 237.828ZM251.917 127.792L245.736 148.974L244.338 148.691L244.063 148.592L249.866 128.754C249.866 128.754 242.268 106.466 240.982 99.6019C240.571 97.33 240.551 94.9978 240.921 92.7181C241.107 91.534 241.626 90.4375 242.409 89.5727C243.192 88.7079 244.202 88.1153 245.307 87.8727C245.307 87.8727 241.112 90.9823 242.389 97.8562C244.058 106.689 251.917 127.792 251.917 127.792ZM237.789 82.4073L228.126 115.021L226.271 117.02L236.069 81.6931L236.106 78.157L237.351 79.5109V79.5159L237.789 82.4073Z" fill="white"/>
</g>
<defs>
<linearGradient id="paint0_linear_227_125" x1="152.686" y1="127.638" x2="95.1527" y2="99.3753" gradientUnits="userSpaceOnUse">
<stop offset="0.17" stop-color="#00272E"/>
<stop offset="1" stop-color="#69B9EB" stop-opacity="0"/>
</linearGradient>
<linearGradient id="paint1_linear_227_125" x1="228.154" y1="177.957" x2="253.049" y2="95.1349" gradientUnits="userSpaceOnUse">
<stop offset="0.17" stop-color="#00272E"/>
<stop offset="1" stop-color="#69B9EB" stop-opacity="0"/>
</linearGradient>
<linearGradient id="paint2_linear_227_125" x1="225.92" y1="81.8917" x2="235.885" y2="81.8688" gradientUnits="userSpaceOnUse">
<stop stop-color="#ECC4D7"/>
<stop offset="0.42" stop-color="#EFD4D1"/>
<stop offset="1" stop-color="#F2EAC9"/>
</linearGradient>
<linearGradient id="paint3_linear_227_125" x1="232.446" y1="74.1874" x2="213.294" y2="104.302" gradientUnits="userSpaceOnUse">
<stop stop-color="#ECC4D7"/>
<stop offset="0.42" stop-color="#EFD4D1"/>
<stop offset="1" stop-color="#F2EAC9"/>
</linearGradient>
<linearGradient id="paint4_linear_227_125" x1="216.913" y1="67.1952" x2="238.028" y2="67.1467" gradientUnits="userSpaceOnUse">
<stop stop-color="#ECC4D7"/>
<stop offset="0.42" stop-color="#EFD4D1"/>
<stop offset="1" stop-color="#F2EAC9"/>
</linearGradient>
<linearGradient id="paint5_linear_227_125" x1="179.43" y1="139.087" x2="190.561" y2="134.98" gradientUnits="userSpaceOnUse">
<stop stop-color="#ECC4D7"/>
<stop offset="0.42" stop-color="#EFD4D1"/>
<stop offset="1" stop-color="#F2EAC9"/>
</linearGradient>
<linearGradient id="paint6_linear_227_125" x1="183.822" y1="123.69" x2="112.738" y2="135.308" gradientUnits="userSpaceOnUse">
<stop offset="0.17" stop-color="#00272E"/>
<stop offset="1" stop-color="#69B9EB" stop-opacity="0"/>
</linearGradient>
<linearGradient id="paint7_linear_227_125" x1="146.098" y1="65.9112" x2="151.936" y2="67.6017" gradientUnits="userSpaceOnUse">
<stop stop-color="#ECC4D7"/>
<stop offset="0.42" stop-color="#EFD4D1"/>
<stop offset="1" stop-color="#F2EAC9"/>
</linearGradient>
<linearGradient id="paint8_linear_227_125" x1="192.699" y1="130.457" x2="180.6" y2="157.459" gradientUnits="userSpaceOnUse">
<stop stop-color="#ECC4D7"/>
<stop offset="0.42" stop-color="#EFD4D1"/>
<stop offset="1" stop-color="#F2EAC9"/>
</linearGradient>
<linearGradient id="paint9_linear_227_125" x1="187.678" y1="137.964" x2="184.868" y2="147.648" gradientUnits="userSpaceOnUse">
<stop stop-color="#ECC4D7"/>
<stop offset="0.42" stop-color="#EFD4D1"/>
<stop offset="1" stop-color="#F2EAC9"/>
</linearGradient>
<linearGradient id="paint10_linear_227_125" x1="238.587" y1="154.298" x2="251.769" y2="154.267" gradientUnits="userSpaceOnUse">
<stop stop-color="#ECC4D7"/>
<stop offset="0.42" stop-color="#EFD4D1"/>
<stop offset="1" stop-color="#F2EAC9"/>
</linearGradient>
<linearGradient id="paint11_linear_227_125" x1="134.451" y1="238.389" x2="115.088" y2="246.423" gradientUnits="userSpaceOnUse">
<stop stop-color="#68E1FD"/>
<stop offset="0.01" stop-color="#67DDF9"/>
<stop offset="0.12" stop-color="#5CB3CE"/>
<stop offset="0.24" stop-color="#538EA9"/>
<stop offset="0.37" stop-color="#4C718B"/>
<stop offset="0.5" stop-color="#465A73"/>
<stop offset="0.63" stop-color="#424A63"/>
<stop offset="0.79" stop-color="#404059"/>
<stop offset="0.99" stop-color="#3F3D56"/>
</linearGradient>
<linearGradient id="paint12_linear_227_125" x1="164.581" y1="237.992" x2="147.36" y2="248.837" gradientUnits="userSpaceOnUse">
<stop stop-color="#68E1FD"/>
<stop offset="0.01" stop-color="#67DDF9"/>
<stop offset="0.12" stop-color="#5CB3CE"/>
<stop offset="0.24" stop-color="#538EA9"/>
<stop offset="0.37" stop-color="#4C718B"/>
<stop offset="0.5" stop-color="#465A73"/>
<stop offset="0.63" stop-color="#424A63"/>
<stop offset="0.79" stop-color="#404059"/>
<stop offset="0.99" stop-color="#3F3D56"/>
</linearGradient>
<linearGradient id="paint13_linear_227_125" x1="241.564" y1="235.438" x2="255.501" y2="245.348" gradientUnits="userSpaceOnUse">
<stop stop-color="#68E1FD"/>
<stop offset="0.01" stop-color="#67DDF9"/>
<stop offset="0.12" stop-color="#5CB3CE"/>
<stop offset="0.24" stop-color="#538EA9"/>
<stop offset="0.37" stop-color="#4C718B"/>
<stop offset="0.5" stop-color="#465A73"/>
<stop offset="0.63" stop-color="#424A63"/>
<stop offset="0.79" stop-color="#404059"/>
<stop offset="0.99" stop-color="#3F3D56"/>
</linearGradient>
<linearGradient id="paint14_linear_227_125" x1="200.677" y1="234.749" x2="227.321" y2="247.435" gradientUnits="userSpaceOnUse">
<stop stop-color="#68E1FD"/>
<stop offset="0.01" stop-color="#67DDF9"/>
<stop offset="0.12" stop-color="#5CB3CE"/>
<stop offset="0.24" stop-color="#538EA9"/>
<stop offset="0.37" stop-color="#4C718B"/>
<stop offset="0.5" stop-color="#465A73"/>
<stop offset="0.63" stop-color="#424A63"/>
<stop offset="0.79" stop-color="#404059"/>
<stop offset="0.99" stop-color="#3F3D56"/>
</linearGradient>
<linearGradient id="paint15_linear_227_125" x1="214.875" y1="107.497" x2="251.321" y2="86.3351" gradientUnits="userSpaceOnUse">
<stop offset="0.17" stop-color="#00272E"/>
<stop offset="1" stop-color="#69B9EB" stop-opacity="0"/>
</linearGradient>
<linearGradient id="paint16_linear_227_125" x1="238.297" y1="97.6677" x2="211.948" y2="99.5614" gradientUnits="userSpaceOnUse">
<stop offset="0.17" stop-color="#00272E"/>
<stop offset="1" stop-color="#69B9EB" stop-opacity="0"/>
</linearGradient>
<linearGradient id="paint17_linear_227_125" x1="151.59" y1="58.6065" x2="128.108" y2="99.7865" gradientUnits="userSpaceOnUse">
<stop offset="0.17" stop-color="#00272E"/>
<stop offset="1" stop-color="#69B9EB" stop-opacity="0"/>
</linearGradient>
<linearGradient id="paint18_linear_227_125" x1="50.0004" y1="114.679" x2="61.8257" y2="114.679" gradientUnits="userSpaceOnUse">
<stop offset="0.17" stop-color="#00272E"/>
<stop offset="1" stop-color="#69B9EB" stop-opacity="0"/>
</linearGradient>
<linearGradient id="paint19_linear_227_125" x1="60.8235" y1="116.266" x2="74.6485" y2="116.266" gradientUnits="userSpaceOnUse">
<stop offset="0.17" stop-color="#00272E"/>
<stop offset="1" stop-color="#69B9EB" stop-opacity="0"/>
</linearGradient>
<linearGradient id="paint20_linear_227_125" x1="68.4772" y1="117.114" x2="49.3673" y2="162.977" gradientUnits="userSpaceOnUse">
<stop stop-color="white" stop-opacity="0"/>
<stop offset="1" stop-color="#1A7FC1"/>
</linearGradient>
<linearGradient id="paint21_linear_227_125" x1="-47.0311" y1="143.469" x2="191.654" y2="233.198" gradientUnits="userSpaceOnUse">
<stop offset="0.17" stop-color="#00272E"/>
<stop offset="1" stop-color="#69B9EB" stop-opacity="0"/>
</linearGradient>
<linearGradient id="paint22_linear_227_125" x1="-56.8244" y1="169.516" x2="181.861" y2="259.246" gradientUnits="userSpaceOnUse">
<stop offset="0.17" stop-color="#00272E"/>
<stop offset="1" stop-color="#69B9EB" stop-opacity="0"/>
</linearGradient>
<linearGradient id="paint23_linear_227_125" x1="124.047" y1="146.866" x2="124.234" y2="146.866" gradientUnits="userSpaceOnUse">
<stop stop-color="#68E1FD"/>
<stop offset="1" stop-color="#69B9EB"/>
</linearGradient>
<clipPath id="clip0_227_125">
<rect width="384" height="256" fill="white"/>
</clipPath>
</defs>
</svg>
