<svg width="384" height="256" viewBox="0 0 384 256" fill="none" xmlns="http://www.w3.org/2000/svg">
<path d="M62.0801 17.57L53.0001 10H21.0001L11.9201 17.57C11.1442 18.2249 10.6463 19.1503 10.5275 20.1586C10.4086 21.1669 10.6777 22.1827 11.2801 23L15.0001 28L10.5201 35.46C10.0812 36.1971 9.89096 37.0558 9.97739 37.9093C10.0638 38.7627 10.4223 39.5658 11.0001 40.2L37.0001 69L63.0001 40.2C63.5762 39.5647 63.9329 38.761 64.0175 37.9076C64.1021 37.0541 63.9102 36.1961 63.4701 35.46L59.0001 28L62.7201 23C63.3224 22.1827 63.5915 21.1669 63.4726 20.1586C63.3538 19.1503 62.856 18.2249 62.0801 17.57Z" fill="url(#paint0_linear_221_40)"/>
<path d="M21 10C21 14.23 20.67 11.84 37 69C53.31 11.93 53 14.21 53 10H21Z" fill="url(#paint1_linear_221_40)"/>
<path d="M37 15C45.8366 15 53 12.7614 53 10C53 7.23858 45.8366 5 37 5C28.1634 5 21 7.23858 21 10C21 12.7614 28.1634 15 37 15Z" fill="#C7CDD8"/>
<path d="M37 31C38.1046 31 39 30.1046 39 29C39 27.8954 38.1046 27 37 27C35.8954 27 35 27.8954 35 29C35 30.1046 35.8954 31 37 31Z" fill="url(#paint2_linear_221_40)"/>
<path d="M37 41C38.1046 41 39 40.1046 39 39C39 37.8954 38.1046 37 37 37C35.8954 37 35 37.8954 35 39C35 40.1046 35.8954 41 37 41Z" fill="url(#paint3_linear_221_40)"/>
<path d="M46.56 22.8201C46.3974 22.9384 46.2011 23.0015 46 23.0001C42.7544 23.0001 39.5964 21.9474 37 20.0001V16.0001C39.5964 14.0527 42.7544 13.0001 46 13.0001C46.2017 12.9948 46.3991 13.0583 46.56 13.1801C47.3128 13.7381 47.9245 14.4648 48.3459 15.3018C48.7673 16.1388 48.9868 17.0629 48.9868 18.0001C48.9868 18.9372 48.7673 19.8613 48.3459 20.6983C47.9245 21.5353 47.3128 22.262 46.56 22.8201Z" fill="url(#paint4_linear_221_40)"/>
<path d="M27.44 22.8201C27.6026 22.9384 27.7989 23.0015 28 23.0001C31.2456 23.0001 34.4036 21.9474 37 20.0001V16.0001C34.4036 14.0527 31.2456 13.0001 28 13.0001C27.7983 12.9948 27.6009 13.0583 27.44 13.1801C26.6872 13.7381 26.0756 14.4648 25.6541 15.3018C25.2327 16.1388 25.0132 17.0629 25.0132 18.0001C25.0132 18.9372 25.2327 19.8613 25.6541 20.6983C26.0756 21.5353 26.6872 22.262 27.44 22.8201Z" fill="url(#paint5_linear_221_40)"/>
<path d="M38 14H36C35.4477 14 35 14.4477 35 15V21C35 21.5523 35.4477 22 36 22H38C38.5523 22 39 21.5523 39 21V15C39 14.4477 38.5523 14 38 14Z" fill="url(#paint6_linear_221_40)"/>
<path d="M32 19H35V17H32C31.7348 17 31.4804 17.1054 31.2929 17.2929C31.1054 17.4804 31 17.7348 31 18C31 18.2652 31.1054 18.5196 31.2929 18.7071C31.4804 18.8946 31.7348 19 32 19ZM42 19H39V17H42C42.2652 17 42.5196 17.1054 42.7071 17.2929C42.8946 17.4804 43 17.7348 43 18C43 18.2652 42.8946 18.5196 42.7071 18.7071C42.5196 18.8946 42.2652 19 42 19Z" fill="#CF4055"/>
<path d="M218.542 59.75H165.458C162.442 59.75 159.548 60.9484 157.415 63.0817C155.282 65.2149 154.083 68.1082 154.083 71.125V93.875C154.083 94.8806 154.483 95.845 155.194 96.5561C155.905 97.2672 156.87 97.6667 157.875 97.6667H226.125C227.131 97.6667 228.095 97.2672 228.806 96.5561C229.517 95.845 229.917 94.8806 229.917 93.875V71.125C229.917 68.1082 228.718 65.2149 226.585 63.0817C224.452 60.9484 221.559 59.75 218.542 59.75Z" fill="#54C0EB"/>
<path d="M260.25 90.0834H123.75C117.468 90.0834 112.375 95.1761 112.375 101.458V200.042C112.375 206.324 117.468 211.417 123.75 211.417H260.25C266.532 211.417 271.625 206.324 271.625 200.042V101.458C271.625 95.1761 266.532 90.0834 260.25 90.0834Z" fill="#F2F2F2"/>
<path d="M161.667 150.75C172.137 150.75 180.625 142.262 180.625 131.792C180.625 121.321 172.137 112.833 161.667 112.833C151.196 112.833 142.708 121.321 142.708 131.792C142.708 142.262 151.196 150.75 161.667 150.75Z" fill="#FFD164"/>
<path d="M161.667 150.75C155.91 150.757 150.39 153.047 146.32 157.118C142.249 161.189 139.959 166.708 139.952 172.465V181.773C139.952 182.596 140.278 183.385 140.86 183.967C141.442 184.548 142.231 184.875 143.053 184.875H180.28C180.687 184.875 181.09 184.795 181.467 184.639C181.843 184.483 182.185 184.255 182.473 183.967C182.761 183.679 182.989 183.337 183.145 182.96C183.301 182.584 183.381 182.181 183.381 181.773V172.465C183.374 166.708 181.084 161.189 177.014 157.118C172.943 153.047 167.424 150.757 161.667 150.75Z" fill="#FFD164"/>
<path d="M245.083 135.583H203.375C202.369 135.583 201.405 135.184 200.694 134.473C199.983 133.762 199.583 132.797 199.583 131.792C199.583 130.786 199.983 129.822 200.694 129.111C201.405 128.399 202.369 128 203.375 128H245.083C246.089 128 247.053 128.399 247.764 129.111C248.475 129.822 248.875 130.786 248.875 131.792C248.875 132.797 248.475 133.762 247.764 134.473C247.053 135.184 246.089 135.583 245.083 135.583ZM245.083 154.542H203.375C202.369 154.542 201.405 154.142 200.694 153.431C199.983 152.72 199.583 151.756 199.583 150.75C199.583 149.744 199.983 148.78 200.694 148.069C201.405 147.358 202.369 146.958 203.375 146.958H245.083C246.089 146.958 247.053 147.358 247.764 148.069C248.475 148.78 248.875 149.744 248.875 150.75C248.875 151.756 248.475 152.72 247.764 153.431C247.053 154.142 246.089 154.542 245.083 154.542ZM245.083 173.5H203.375C202.369 173.5 201.405 173.1 200.694 172.389C199.983 171.678 199.583 170.714 199.583 169.708C199.583 168.703 199.983 167.738 200.694 167.027C201.405 166.316 202.369 165.917 203.375 165.917H245.083C246.089 165.917 247.053 166.316 247.764 167.027C248.475 167.738 248.875 168.703 248.875 169.708C248.875 170.714 248.475 171.678 247.764 172.389C247.053 173.1 246.089 173.5 245.083 173.5ZM161.667 154.542C157.167 154.542 152.769 153.207 149.027 150.708C145.286 148.208 142.37 144.655 140.648 140.498C138.926 136.341 138.476 131.766 139.354 127.353C140.231 122.94 142.398 118.887 145.58 115.705C148.761 112.523 152.815 110.357 157.228 109.479C161.641 108.601 166.216 109.051 170.373 110.773C174.53 112.495 178.083 115.411 180.582 119.152C183.082 122.894 184.417 127.292 184.417 131.792C184.41 137.823 182.012 143.607 177.747 147.872C173.481 152.137 167.698 154.536 161.667 154.542ZM161.667 116.625C158.667 116.625 155.735 117.514 153.24 119.181C150.746 120.848 148.802 123.216 147.654 125.988C146.506 128.759 146.206 131.808 146.791 134.751C147.376 137.693 148.821 140.395 150.942 142.516C153.063 144.637 155.766 146.082 158.708 146.667C161.65 147.252 164.699 146.952 167.471 145.804C170.242 144.656 172.611 142.712 174.277 140.218C175.944 137.724 176.833 134.791 176.833 131.792C176.833 127.769 175.235 123.911 172.391 121.067C169.547 118.223 165.689 116.625 161.667 116.625Z" fill="#232323"/>
<path d="M184.417 188.667H138.917C137.911 188.667 136.947 188.267 136.236 187.556C135.524 186.845 135.125 185.881 135.125 184.875V173.5C135.125 166.461 137.921 159.71 142.899 154.732C147.876 149.755 154.627 146.958 161.667 146.958C168.706 146.958 175.457 149.755 180.434 154.732C185.412 159.71 188.208 166.461 188.208 173.5V184.875C188.208 185.881 187.809 186.845 187.098 187.556C186.387 188.267 185.422 188.667 184.417 188.667ZM142.708 181.083H180.625V173.5C180.625 168.472 178.628 163.65 175.072 160.094C171.517 156.539 166.695 154.542 161.667 154.542C156.639 154.542 151.816 156.539 148.261 160.094C144.706 163.65 142.708 168.472 142.708 173.5V181.083Z" fill="#232323"/>
<path d="M260.25 211.417H123.75C120.733 211.417 117.84 210.218 115.707 208.085C113.573 205.952 112.375 203.059 112.375 200.042V101.458C112.375 98.4415 113.573 95.5483 115.707 93.415C117.84 91.2818 120.733 90.0834 123.75 90.0834H260.25C263.267 90.0834 266.16 91.2818 268.293 93.415C270.427 95.5483 271.625 98.4415 271.625 101.458V200.042C271.625 203.059 270.427 205.952 268.293 208.085C266.16 210.218 263.267 211.417 260.25 211.417ZM123.75 97.6667C122.744 97.6667 121.78 98.0662 121.069 98.7773C120.358 99.4883 119.958 100.453 119.958 101.458V200.042C119.958 201.047 120.358 202.012 121.069 202.723C121.78 203.434 122.744 203.833 123.75 203.833H260.25C261.256 203.833 262.22 203.434 262.931 202.723C263.642 202.012 264.042 201.047 264.042 200.042V101.458C264.042 100.453 263.642 99.4883 262.931 98.7773C262.22 98.0662 261.256 97.6667 260.25 97.6667H123.75Z" fill="#232323"/>
<path d="M226.125 97.6667H157.875C156.87 97.6667 155.905 97.2672 155.194 96.5561C154.483 95.845 154.083 94.8806 154.083 93.875V71.125C154.083 68.1082 155.282 65.2149 157.415 63.0817C159.548 60.9484 162.442 59.75 165.458 59.75H218.542C221.559 59.75 224.452 60.9484 226.585 63.0817C228.718 65.2149 229.917 68.1082 229.917 71.125V93.875C229.917 94.8806 229.517 95.845 228.806 96.5561C228.095 97.2672 227.131 97.6667 226.125 97.6667ZM161.667 90.0833H222.333V71.125C222.333 70.1194 221.934 69.155 221.223 68.4439C220.512 67.7328 219.547 67.3333 218.542 67.3333H165.458C164.453 67.3333 163.488 67.7328 162.777 68.4439C162.066 69.155 161.667 70.1194 161.667 71.125V90.0833Z" fill="#232323"/>
<defs>
<linearGradient id="paint0_linear_221_40" x1="9.95005" y1="39.5" x2="64.05" y2="39.5" gradientUnits="userSpaceOnUse">
<stop stop-color="#474F72"/>
<stop offset="1" stop-color="#878C9F"/>
</linearGradient>
<linearGradient id="paint1_linear_221_40" x1="21" y1="39.5" x2="53" y2="39.5" gradientUnits="userSpaceOnUse">
<stop stop-color="#D4D8E1"/>
<stop offset="1" stop-color="#F3F4F5"/>
</linearGradient>
<linearGradient id="paint2_linear_221_40" x1="35" y1="29" x2="39" y2="29" gradientUnits="userSpaceOnUse">
<stop stop-color="#474F72"/>
<stop offset="1" stop-color="#878C9F"/>
</linearGradient>
<linearGradient id="paint3_linear_221_40" x1="35" y1="39" x2="39" y2="39" gradientUnits="userSpaceOnUse">
<stop stop-color="#474F72"/>
<stop offset="1" stop-color="#878C9F"/>
</linearGradient>
<linearGradient id="paint4_linear_221_40" x1="37" y1="18.0001" x2="49" y2="18.0001" gradientUnits="userSpaceOnUse">
<stop stop-color="#DA5466"/>
<stop offset="1" stop-color="#F4929C"/>
</linearGradient>
<linearGradient id="paint5_linear_221_40" x1="25" y1="5.00005" x2="37" y2="5.00005" gradientUnits="userSpaceOnUse">
<stop stop-color="#DA5466"/>
<stop offset="1" stop-color="#F4929C"/>
</linearGradient>
<linearGradient id="paint6_linear_221_40" x1="35" y1="5" x2="39" y2="5" gradientUnits="userSpaceOnUse">
<stop stop-color="#DA5466"/>
<stop offset="1" stop-color="#F4929C"/>
</linearGradient>
</defs>
</svg>
