<svg width="384" height="256" viewBox="0 0 384 256" fill="none" xmlns="http://www.w3.org/2000/svg">
<g clip-path="url(#clip0_221_55)">
<path d="M68.1897 23.2738L62.2708 30.5036C61.7656 31.1208 60.9444 31.3831 60.1749 31.173L57.5797 30.4645H16.4202L13.8251 31.173C13.0556 31.3831 12.2344 31.1208 11.7292 30.5036L5.8102 23.2738C5.17632 22.4996 5.20457 21.3781 5.87645 20.6367L16.4202 9.00195H57.5797L68.1235 20.6367C68.7953 21.3781 68.8236 22.4996 68.1897 23.2738Z" fill="#EA4E4E"/>
<path d="M57.5795 30.4645C53.5348 42.6842 54.1028 54.5525 57.938 65.9855C58.3788 67.2994 57.4155 68.6596 56.0297 68.6596H17.9699C16.584 68.6596 15.6208 67.2995 16.0615 65.9855C19.8968 54.5525 20.4648 42.6842 16.42 30.4645C18.2383 22.9545 18.3963 15.7607 16.42 9.00198L29.0288 5.33923C29.0288 8.89648 32.5993 11.7687 36.9998 11.7687C41.4003 11.7687 44.9708 8.89648 44.9708 5.33923L57.5795 9.00198C55.6033 15.7606 55.7614 22.9545 57.5795 30.4645Z" fill="#F96464"/>
<path opacity="0.4" d="M20.486 17.2538C20.4047 15.4882 20.209 13.7377 19.9045 12.0523C19.7722 11.3202 20.2587 10.6196 20.9909 10.4873C21.7211 10.3512 22.424 10.8412 22.5562 11.5734C22.8819 13.3759 23.0907 15.2454 23.1779 17.1302C23.2121 17.8736 22.6371 18.5037 21.8941 18.5379C21.1016 18.5626 20.5187 17.9607 20.486 17.2538Z" fill="white"/>
<path opacity="0.08" d="M56.0298 68.6595H54.8509C54.8711 68.3832 54.8374 68.0936 54.7431 67.8107C50.661 55.6586 50.0615 43.0417 54.3591 30.0542C52.4931 22.3547 52.2709 14.9652 54.1503 8.00659L57.579 9.00359C55.6053 15.7601 55.7603 22.9542 57.579 30.4652C53.5373 42.6846 54.1031 54.554 57.936 65.9852C58.3808 67.2987 57.4175 68.6595 56.0298 68.6595Z" fill="black"/>
<path d="M44.9708 5.33911C44.9708 8.89636 41.4003 11.7686 36.9998 11.7686C32.5993 11.7686 29.0288 8.89636 29.0288 5.33911C34.3428 9.08761 39.6568 9.08761 44.9708 5.33911Z" fill="#EA4E4E"/>
<path d="M68.3668 20.418L57.8209 8.7819C57.7834 8.74015 57.7036 8.70677 57.6707 8.68852L45.0621 5.0259C44.9705 4.99865 44.8563 5.02077 44.7828 5.0724C39.5459 8.76665 34.4542 8.76665 29.2174 5.0724C29.145 5.02115 29.0239 4.9989 28.9381 5.0259L16.3294 8.68852C16.2966 8.70677 16.212 8.74552 16.1792 8.7819L5.63298 20.4186C4.86048 21.2735 4.82798 22.5903 5.55748 23.4814L11.4777 30.7101C12.0642 31.4301 13.0225 31.7298 13.9121 31.4881L16.2051 30.8623C19.892 42.2096 19.7416 53.99 15.7524 65.8815C15.2395 67.4118 16.3625 68.9858 17.9704 68.9858H56.03C57.6374 68.9858 58.761 67.4121 58.248 65.8815C54.2587 53.99 54.1083 42.2096 57.7952 30.8623L60.0887 31.4881C60.9831 31.7309 61.9393 31.4261 62.522 30.7108L68.443 23.4814C69.1722 22.5903 69.1397 21.2735 68.3668 20.418ZM44.6014 5.98577C44.1514 9.38152 40.4699 11.4421 37.0001 11.4421C33.5091 11.4421 29.8515 9.40177 29.3989 5.98577C34.4456 9.29815 39.5546 9.29815 44.6014 5.98577ZM13.7407 30.8584C13.0932 31.0328 12.404 30.8134 11.9832 30.2971L6.06248 23.0676C5.53585 22.4244 5.55948 21.4736 6.1171 20.8565L16.262 9.6629C17.9556 15.8618 17.9187 22.7663 16.1454 30.2019L13.7407 30.8584ZM57.6288 66.0895C58.0007 67.1971 57.1889 68.3331 56.0299 68.3331H17.9704C16.8111 68.3331 15.9996 67.1969 16.3714 66.0895C20.4306 53.9888 20.561 41.9985 16.7596 30.4504C18.6072 22.7639 18.6287 15.6256 16.824 9.22465L28.7194 5.76915C29.0207 9.66027 33.0337 12.0949 37.0001 12.0949C40.9412 12.0949 44.9832 9.6129 45.2809 5.76915L57.1762 9.22465C55.3715 15.6256 55.393 22.7639 57.2406 30.4504C53.4394 41.9985 53.5697 53.9888 57.6288 66.0895ZM67.9379 23.0676L62.0164 30.2978C61.5962 30.8138 60.9065 31.0344 60.2599 30.8584L57.8546 30.2019C56.0812 22.7661 56.0444 15.8616 57.738 9.6629L67.8825 20.8559C68.4407 21.4736 68.4642 22.4245 67.9379 23.0676Z" fill="black"/>
</g>
<path d="M218.542 59.75H165.458C162.442 59.75 159.548 60.9484 157.415 63.0817C155.282 65.2149 154.083 68.1082 154.083 71.125V93.875C154.083 94.8806 154.483 95.845 155.194 96.5561C155.905 97.2672 156.87 97.6667 157.875 97.6667H226.125C227.131 97.6667 228.095 97.2672 228.806 96.5561C229.517 95.845 229.917 94.8806 229.917 93.875V71.125C229.917 68.1082 228.718 65.2149 226.585 63.0817C224.452 60.9484 221.559 59.75 218.542 59.75Z" fill="#54C0EB"/>
<path d="M260.25 90.0834H123.75C117.468 90.0834 112.375 95.1761 112.375 101.458V200.042C112.375 206.324 117.468 211.417 123.75 211.417H260.25C266.532 211.417 271.625 206.324 271.625 200.042V101.458C271.625 95.1761 266.532 90.0834 260.25 90.0834Z" fill="#F2F2F2"/>
<path d="M161.667 150.75C172.137 150.75 180.625 142.262 180.625 131.792C180.625 121.321 172.137 112.833 161.667 112.833C151.196 112.833 142.708 121.321 142.708 131.792C142.708 142.262 151.196 150.75 161.667 150.75Z" fill="#FFD164"/>
<path d="M161.667 150.75C155.91 150.757 150.39 153.047 146.32 157.118C142.249 161.189 139.959 166.708 139.952 172.465V181.773C139.952 182.596 140.278 183.385 140.86 183.967C141.442 184.548 142.231 184.875 143.053 184.875H180.28C180.687 184.875 181.09 184.795 181.467 184.639C181.843 184.483 182.185 184.255 182.473 183.967C182.761 183.679 182.989 183.337 183.145 182.96C183.301 182.584 183.381 182.181 183.381 181.773V172.465C183.374 166.708 181.084 161.189 177.014 157.118C172.943 153.047 167.424 150.757 161.667 150.75Z" fill="#FFD164"/>
<path d="M245.083 135.583H203.375C202.369 135.583 201.405 135.184 200.694 134.473C199.983 133.762 199.583 132.797 199.583 131.792C199.583 130.786 199.983 129.822 200.694 129.111C201.405 128.399 202.369 128 203.375 128H245.083C246.089 128 247.053 128.399 247.764 129.111C248.475 129.822 248.875 130.786 248.875 131.792C248.875 132.797 248.475 133.762 247.764 134.473C247.053 135.184 246.089 135.583 245.083 135.583ZM245.083 154.542H203.375C202.369 154.542 201.405 154.142 200.694 153.431C199.983 152.72 199.583 151.756 199.583 150.75C199.583 149.744 199.983 148.78 200.694 148.069C201.405 147.358 202.369 146.958 203.375 146.958H245.083C246.089 146.958 247.053 147.358 247.764 148.069C248.475 148.78 248.875 149.744 248.875 150.75C248.875 151.756 248.475 152.72 247.764 153.431C247.053 154.142 246.089 154.542 245.083 154.542ZM245.083 173.5H203.375C202.369 173.5 201.405 173.1 200.694 172.389C199.983 171.678 199.583 170.714 199.583 169.708C199.583 168.703 199.983 167.738 200.694 167.027C201.405 166.316 202.369 165.917 203.375 165.917H245.083C246.089 165.917 247.053 166.316 247.764 167.027C248.475 167.738 248.875 168.703 248.875 169.708C248.875 170.714 248.475 171.678 247.764 172.389C247.053 173.1 246.089 173.5 245.083 173.5ZM161.667 154.542C157.167 154.542 152.769 153.207 149.027 150.708C145.286 148.208 142.37 144.655 140.648 140.498C138.926 136.341 138.476 131.766 139.354 127.353C140.231 122.94 142.398 118.887 145.58 115.705C148.761 112.523 152.815 110.357 157.228 109.479C161.641 108.601 166.216 109.051 170.373 110.773C174.53 112.495 178.083 115.411 180.582 119.152C183.082 122.894 184.417 127.292 184.417 131.792C184.41 137.823 182.012 143.607 177.747 147.872C173.481 152.137 167.698 154.536 161.667 154.542ZM161.667 116.625C158.667 116.625 155.735 117.514 153.24 119.181C150.746 120.848 148.802 123.216 147.654 125.988C146.506 128.759 146.206 131.808 146.791 134.751C147.376 137.693 148.821 140.395 150.942 142.516C153.063 144.637 155.766 146.082 158.708 146.667C161.65 147.252 164.699 146.952 167.471 145.804C170.242 144.656 172.611 142.712 174.277 140.218C175.944 137.724 176.833 134.791 176.833 131.792C176.833 127.769 175.235 123.911 172.391 121.067C169.547 118.223 165.689 116.625 161.667 116.625Z" fill="#232323"/>
<path d="M184.417 188.667H138.917C137.911 188.667 136.947 188.267 136.236 187.556C135.524 186.845 135.125 185.881 135.125 184.875V173.5C135.125 166.461 137.921 159.71 142.899 154.732C147.876 149.755 154.627 146.958 161.667 146.958C168.706 146.958 175.457 149.755 180.434 154.732C185.412 159.71 188.208 166.461 188.208 173.5V184.875C188.208 185.881 187.809 186.845 187.098 187.556C186.387 188.267 185.422 188.667 184.417 188.667ZM142.708 181.083H180.625V173.5C180.625 168.472 178.628 163.65 175.072 160.094C171.517 156.539 166.695 154.542 161.667 154.542C156.639 154.542 151.816 156.539 148.261 160.094C144.706 163.65 142.708 168.472 142.708 173.5V181.083Z" fill="#232323"/>
<path d="M260.25 211.417H123.75C120.733 211.417 117.84 210.218 115.707 208.085C113.573 205.952 112.375 203.059 112.375 200.042V101.458C112.375 98.4415 113.573 95.5483 115.707 93.415C117.84 91.2818 120.733 90.0834 123.75 90.0834H260.25C263.267 90.0834 266.16 91.2818 268.293 93.415C270.427 95.5483 271.625 98.4415 271.625 101.458V200.042C271.625 203.059 270.427 205.952 268.293 208.085C266.16 210.218 263.267 211.417 260.25 211.417ZM123.75 97.6667C122.744 97.6667 121.78 98.0662 121.069 98.7773C120.358 99.4883 119.958 100.453 119.958 101.458V200.042C119.958 201.047 120.358 202.012 121.069 202.723C121.78 203.434 122.744 203.833 123.75 203.833H260.25C261.256 203.833 262.22 203.434 262.931 202.723C263.642 202.012 264.042 201.047 264.042 200.042V101.458C264.042 100.453 263.642 99.4883 262.931 98.7773C262.22 98.0662 261.256 97.6667 260.25 97.6667H123.75Z" fill="#232323"/>
<path d="M226.125 97.6667H157.875C156.87 97.6667 155.905 97.2672 155.194 96.5561C154.483 95.845 154.083 94.8806 154.083 93.875V71.125C154.083 68.1082 155.282 65.2149 157.415 63.0817C159.548 60.9484 162.442 59.75 165.458 59.75H218.542C221.559 59.75 224.452 60.9484 226.585 63.0817C228.718 65.2149 229.917 68.1082 229.917 71.125V93.875C229.917 94.8806 229.517 95.845 228.806 96.5561C228.095 97.2672 227.131 97.6667 226.125 97.6667ZM161.667 90.0833H222.333V71.125C222.333 70.1194 221.934 69.155 221.223 68.4439C220.512 67.7328 219.547 67.3333 218.542 67.3333H165.458C164.453 67.3333 163.488 67.7328 162.777 68.4439C162.066 69.155 161.667 70.1194 161.667 71.125V90.0833Z" fill="#232323"/>
<defs>
<clipPath id="clip0_221_55">
<rect width="64" height="64" fill="white" transform="translate(5 5)"/>
</clipPath>
</defs>
</svg>
