<svg width="384" height="256" viewBox="0 0 384 256" fill="none" xmlns="http://www.w3.org/2000/svg">
<g clip-path="url(#clip0_221_40)">
<path d="M198.094 26.2344C144.631 29.3625 102.219 73.725 102.219 128C102.219 182.275 144.631 226.638 198.094 229.766C251.556 226.597 293.969 182.234 293.969 128C293.969 73.7656 251.556 29.3625 198.094 26.2344Z" fill="#3279AF"/>
<path d="M293.644 119.794C291.247 116.097 289.215 112.928 287.956 111.547C283.69 107.038 271.462 110.044 266.953 109.434C262.444 108.825 253.465 105.819 249.931 104.559C246.437 103.3 239.937 107.322 244.162 109.434C248.428 111.547 251.434 112.319 256.919 112.319C262.403 112.319 259.681 122.069 256.919 127.838C254.156 133.566 234.9 139.334 229.415 136.328C223.931 133.322 212.15 113.334 210.159 117.072C208.169 120.809 219.422 137.588 223.159 141.813C226.897 146.078 234.656 145.306 233.397 151.319C232.137 157.331 223.687 163.344 218.934 169.844C214.181 176.344 207.437 216.847 199.678 216.847C191.919 216.847 183.428 210.103 175.425 202.344C167.422 194.584 167.909 181.828 167.909 174.597C167.909 167.366 160.922 152.334 156.412 145.834C151.903 139.334 133.662 138.563 126.919 130.072C120.175 121.581 122.694 107.809 128.178 101.553C133.662 95.2969 141.665 95.2969 146.662 94.5657C151.659 93.8344 160.15 95.825 160.678 101.553C161.165 107.281 184.931 107.809 188.181 109.313C191.431 110.816 204.919 112.075 206.706 107.566C208.453 103.056 187.937 99.3188 183.956 96.1907C179.975 93.0625 189.725 88.8376 194.194 86.5626C198.703 84.3282 211.215 89.0813 214.709 87.3344C218.203 85.5875 203.212 80.0625 197.444 78.3157C191.675 76.5688 185.703 82.5813 179.69 85.0594C173.678 87.5782 165.187 80.7938 159.947 78.0719C154.706 75.3094 146.947 86.8063 138.172 89.0813C129.437 91.3157 124.44 84.0844 128.178 80.0626C131.915 76.0813 135.45 78.8032 138.415 75.3094C141.422 71.8157 141.665 63.0407 152.675 61.2938C163.684 59.5469 175.181 64.5438 184.2 61.2938C193.178 58.0438 192.203 51.3 187.937 51.5438C183.672 51.7875 170.184 57.3126 167.422 53.7782C164.659 50.2844 169.25 43.5 183.306 39.0313C196.712 34.7657 200.897 41.1844 204.187 26.7219C252.084 32.45 289.784 71.3688 293.644 119.794Z" fill="#B3D34C"/>
<path d="M98.1562 42.2812C98.1562 46.75 94.5 50.4062 90.0312 50.4062C94.5 50.4062 98.1562 54.0625 98.1562 58.5312C98.1562 54.0625 101.812 50.4062 106.281 50.4062C101.812 50.4062 98.1562 46.75 98.1562 42.2812ZM285.844 213.719C285.844 209.25 289.5 205.594 293.969 205.594C289.5 205.594 285.844 201.938 285.844 197.469C285.844 201.938 282.188 205.594 277.719 205.594C282.188 205.594 285.844 209.25 285.844 213.719Z" fill="#FFB30F"/>
<path d="M90.0312 185.281C90.0312 180.447 100.391 174.231 109.125 174.231C117.859 174.231 117.859 178.822 117.859 178.822C117.859 178.822 123.141 169.803 131.266 169.803C139.391 169.803 140.812 174.516 140.812 174.516C140.812 174.516 147.922 165.009 160.312 165.009C172.703 165.009 168.641 176.628 168.641 176.628C168.641 176.628 174.125 171.306 182.859 171.306C191.594 171.306 191.594 185.281 191.594 185.281H90.0312Z" fill="#FFE3A9"/>
<path d="M90.0312 185.281C90.0312 180.447 100.391 174.231 109.125 174.231C117.859 174.231 117.859 178.822 117.859 178.822C117.859 178.822 123.141 169.803 131.266 169.803C139.391 169.803 140.812 174.516 140.812 174.516C140.812 174.516 147.922 165.009 160.312 165.009C172.703 165.009 168.641 176.628 168.641 176.628C168.641 176.628 174.125 171.306 182.859 171.306C191.594 171.306 191.594 185.281 191.594 185.281H90.0312ZM192.406 68.6875C192.406 63.8531 195.047 57.6375 203.781 57.6375C208.006 57.6375 212.516 60.7656 212.516 60.7656C212.516 60.7656 217.391 53.1688 225.516 53.1688C233.641 53.1688 236.566 60.3594 236.566 60.3594C236.566 60.3594 248.266 48.375 260.656 48.375C273.047 48.375 270.041 60.8875 270.041 60.8875C270.041 60.8875 274.469 54.6313 283.203 54.6313C291.938 54.6313 293.969 68.6875 293.969 68.6875H192.406Z" fill="#FFE3A9"/>
<path d="M96.0437 168.178C90.7219 155.422 88 141.934 88 128C88 100.212 98.8062 74.0906 118.469 54.4687C138.091 34.8062 164.212 24 192 24C215.847 24 239.125 32.2469 257.569 47.2781L255.009 50.4469C237.256 35.9844 214.912 28.0625 192 28.0625C136.912 28.0625 92.0625 72.9125 92.0625 128C92.0625 141.366 94.6625 154.366 99.7812 166.594L96.0437 168.178Z" fill="#1D4925"/>
<path d="M192 232C157.591 232 125.456 215.019 106.038 186.541L109.409 184.266C128.056 211.606 158.931 227.938 192 227.938C247.088 227.938 291.938 183.088 291.938 128C291.938 106.997 285.478 86.8875 273.291 69.8656C272.844 69.2563 272.803 68.4437 273.128 67.7531C273.494 67.0625 274.184 66.6562 274.916 66.6562H291.409C290.475 63.0812 288.119 56.7031 283.163 56.7031C275.566 56.7031 271.706 62.025 271.666 62.1063C271.097 62.9188 270.041 63.2031 269.188 62.7969C268.294 62.3906 267.806 61.4156 268.05 60.4813C268.05 60.4406 269.147 55.6469 266.872 52.7625C265.653 51.2188 263.541 50.4469 260.656 50.4469C249.241 50.4469 238.109 61.7406 237.988 61.8625C237.5 62.35 236.809 62.5531 236.159 62.4312C235.469 62.3094 234.941 61.8219 234.656 61.2125C234.575 60.9687 232.097 55.2812 225.516 55.2812C218.65 55.2812 214.263 61.8625 214.222 61.9438C213.938 62.3906 213.45 62.7156 212.922 62.8375C212.394 62.9594 211.825 62.8375 211.378 62.5125C211.338 62.4719 207.316 59.75 203.822 59.75C197.119 59.75 195.209 63.8937 194.681 66.7375H266.75V70.8H192.406C191.269 70.8 190.375 69.9062 190.375 68.7687C190.375 62.7562 193.869 55.6875 203.781 55.6875C206.95 55.6875 210.119 57.15 211.988 58.1656C214.059 55.6875 218.731 51.2594 225.516 51.2594C231.691 51.2594 235.266 54.7531 237.013 57.2719C240.994 53.6563 250.459 46.3438 260.656 46.3438C264.881 46.3438 268.05 47.6437 270.081 50.2031C271.503 51.9906 272.072 54.1031 272.316 56.0125C274.794 54.2656 278.409 52.6 283.203 52.6C293.563 52.6 295.878 67.7125 295.959 68.3625C296.041 68.9312 295.878 69.5406 295.472 69.9875C295.106 70.4344 294.538 70.6781 293.928 70.6781H278.775C290.028 87.7 295.959 107.403 295.959 127.959C295.959 155.747 285.153 181.869 265.491 201.491C245.909 221.194 219.788 232 192 232Z" fill="#1D4925"/>
<path d="M164.375 167C161.978 159.525 157.631 151.116 154.787 146.972C153.041 144.453 148.084 142.747 142.884 140.959C136.506 138.766 129.316 136.288 125.375 131.331C117.697 121.703 120.988 106.713 126.716 100.213C131.916 94.2813 138.984 93.4281 144.144 92.8188C144.956 92.7375 145.728 92.6156 146.419 92.5344C150.116 91.9656 155.803 92.6969 159.459 95.5813C161.409 97.125 162.547 99.1156 162.75 101.35C162.75 101.35 163.075 102.609 168.316 103.909C172.134 104.884 177.05 105.494 181.031 105.981C185.5 106.55 187.856 106.875 189.075 107.444C191.066 108.378 199.434 109.434 203.497 107.769C204.066 107.525 204.512 107.241 204.716 106.956C203.537 105.413 196.55 103.097 192.691 101.838C188.303 100.375 184.484 99.1156 182.697 97.7344C181.031 96.4344 180.909 94.9313 180.991 94.1188C181.356 90.7875 185.947 88.2688 191.919 85.3438C192.406 85.1 192.853 84.8969 193.259 84.6938C196.225 83.1906 201.141 84.0438 205.894 84.8156C207.356 85.0594 209.103 85.3438 210.606 85.5063C207.234 83.8 201.425 81.6063 196.834 80.1844C193.747 79.25 190.172 81.4031 186.394 83.6781C184.484 84.8156 182.494 86.0344 180.463 86.8875C174.775 89.2438 167.991 85.1813 162.547 81.8906C161.247 81.1188 160.028 80.3875 159.013 79.8188C157.266 78.8844 153.813 81.5656 150.481 84.125C146.988 86.8063 143.047 89.8531 138.7 90.9906C132.525 92.575 127.853 90.0563 125.944 86.8063C124.319 84.0438 124.603 80.8344 126.716 78.6C129.153 76 131.55 75.675 133.459 75.3907C135.003 75.1875 135.938 75.025 136.913 73.9282C137.522 73.1969 138.091 72.0188 138.7 70.6782C140.528 66.6969 143.291 60.725 152.391 59.2625C157.713 58.4094 162.953 59.0594 168.072 59.6688C173.759 60.3594 179.122 60.9688 183.55 59.3844C188.019 57.7594 189.319 55.3219 189.075 54.1844C189.034 54.0219 188.953 53.5344 188.1 53.575C186.962 53.6563 184.769 54.225 182.412 54.8344C175.628 56.6219 168.6 58.4907 165.878 55.0375C164.7 53.5344 164.375 51.625 164.984 49.6344C166.447 44.8 172.947 40.25 182.737 37.0813C187.287 35.6188 190.781 35.3344 193.584 35.1313C196.387 34.9281 197.891 34.7656 198.988 33.8719C200.288 32.8156 201.303 30.4594 202.238 26.275L206.219 27.1688C203.781 37.8938 200.328 38.6656 193.909 39.1531C191.309 39.3563 188.1 39.6 183.997 40.9407C174.084 44.1094 169.656 48.2125 168.884 50.8125C168.6 51.7469 168.844 52.2344 169.088 52.5188C169.088 52.5188 169.697 53.1688 173.069 52.7625C175.628 52.4375 178.675 51.625 181.397 50.8938C184.078 50.2031 186.353 49.5938 187.897 49.4719C190.497 49.3094 192.569 50.8531 193.097 53.3313C193.747 56.5406 191.512 60.8063 184.972 63.1625C179.65 65.0719 173.8 64.3813 167.625 63.65C162.791 63.0813 157.834 62.4719 153.081 63.2438C146.134 64.3406 144.266 68.4032 142.438 72.3438C141.706 73.9282 141.016 75.3906 140.041 76.5688C138.091 78.8438 135.897 79.1688 134.109 79.4125C132.484 79.6563 131.184 79.8188 129.722 81.3625C128.503 82.6625 129.153 84.125 129.478 84.6938C130.616 86.6031 133.581 88.0656 137.725 87.0094C141.259 86.1156 144.834 83.3125 148.044 80.875C152.594 77.3813 156.9 74.05 160.922 76.1625C162.059 76.7719 163.359 77.5438 164.7 78.3563C169.372 81.1594 175.181 84.6938 178.959 83.1094C180.706 82.3781 182.575 81.2813 184.362 80.1844C188.75 77.5438 193.3 74.8219 198.094 76.2844C200.856 77.1375 205.284 78.6813 209.022 80.2656C215.725 83.1094 217.147 84.6938 217.269 86.3594C217.35 87.4969 216.741 88.4719 215.644 89.0406C213.409 90.1375 209.672 89.5281 205.284 88.7969C201.547 88.1875 196.916 87.375 195.128 88.3094L193.747 89C191.756 89.975 185.825 92.8594 185.094 94.4438C185.134 94.4844 185.175 94.4844 185.216 94.525C186.434 95.4594 190.456 96.8 193.991 97.9781C202.116 100.659 207.153 102.488 208.534 105.413C208.981 106.347 209.022 107.322 208.656 108.256C208.088 109.678 206.869 110.816 205.041 111.547C199.881 113.619 190.375 112.481 187.409 111.141C186.719 110.816 183.306 110.369 180.544 110.044C168.478 108.541 159.175 106.956 158.728 101.716C158.647 100.578 158.078 99.6031 156.981 98.75C154.422 96.7188 149.953 96.1094 147.069 96.5156C146.297 96.6375 145.525 96.7188 144.672 96.8406C139.919 97.4094 133.988 98.1 129.803 102.853C125.131 108.134 122.369 120.891 128.625 128.731C131.834 132.753 138.172 134.947 144.266 137.019C150.156 139.05 155.681 140.959 158.2 144.575C161.247 148.963 165.837 157.859 168.316 165.7L164.375 167ZM199.678 218.878C190.741 218.878 181.275 210.834 174.003 203.806C169.616 199.581 167.097 193.569 166.244 185.525L170.266 185.119C170.997 192.188 173.15 197.388 176.806 200.922C183.509 207.422 192.162 214.856 199.637 214.856C199.719 214.856 201.466 214.775 204.634 206.691C206.788 201.206 208.778 194.178 210.728 187.353C213.531 177.481 215.359 171.306 217.269 168.666C219.097 166.147 221.453 163.75 223.688 161.434C227.181 157.859 230.756 154.163 231.447 150.953C231.813 149.166 231.284 148.638 227.791 147.094C225.759 146.2 223.444 145.184 221.697 143.194C219.706 140.959 215.847 135.516 212.8 130.316C207.275 120.85 207.559 117.763 208.412 116.138C208.9 115.244 209.712 114.675 210.647 114.594C213.166 114.35 215.603 117.153 221.412 124.588C224.5 128.528 228.319 133.403 230.391 134.541C232.178 135.516 237.581 135.353 244.366 133.2C250.662 131.169 254.359 128.528 255.091 126.984C257.569 121.825 258.747 116.3 257.731 114.716C257.65 114.594 257.528 114.391 256.919 114.391C251.272 114.391 247.941 113.659 243.269 111.303C240.628 110.003 240.425 107.809 241.034 106.388C242.294 103.463 247.291 101.513 250.581 102.731C255.131 104.356 263.297 106.956 267.197 107.525C268.375 107.688 270.447 107.525 272.681 107.403C278.531 106.997 285.803 106.469 289.419 110.288C290.719 111.669 292.506 114.431 294.781 117.925L295.35 118.819L291.938 121.013L291.369 120.119C289.297 116.909 287.509 114.147 286.453 113.05C284.178 110.653 277.678 111.1 272.966 111.425C270.447 111.588 268.253 111.75 266.669 111.547C262.159 110.938 253.303 108.013 249.281 106.591C247.981 106.144 245.869 106.997 245.097 107.728C245.097 107.728 245.137 107.728 245.137 107.769C249.241 109.8 252.003 110.45 257 110.45C258.828 110.45 260.331 111.222 261.225 112.644C264.109 117.234 259.722 126.944 258.828 128.853C256.756 133.241 248.916 136.166 245.666 137.181C239.856 139.05 232.3 140.309 228.522 138.238C225.719 136.694 222.103 132.103 218.284 127.228C216.497 124.953 214.1 121.906 212.394 120.119C212.881 121.703 213.978 124.384 216.578 128.772C219.462 133.647 222.997 138.603 224.784 140.634C225.922 141.934 227.75 142.747 229.497 143.478C232.503 144.778 236.606 146.606 235.509 151.888C234.616 156.234 230.756 160.216 226.694 164.359C224.541 166.594 222.306 168.869 220.641 171.144C219.056 173.338 216.862 181.056 214.75 188.531C209.306 207.381 205.609 218.878 199.678 218.878ZM98.1562 60.5625C97.0188 60.5625 96.125 59.6688 96.125 58.5313C96.125 55.1594 93.4031 52.4375 90.0312 52.4375C88.8938 52.4375 88 51.5438 88 50.4063C88 49.2688 88.8938 48.375 90.0312 48.375C93.4031 48.375 96.125 45.6532 96.125 42.2813C96.125 41.1438 97.0188 40.25 98.1562 40.25C99.2937 40.25 100.188 41.1438 100.188 42.2813C100.188 45.6532 102.909 48.375 106.281 48.375C107.419 48.375 108.312 49.2688 108.312 50.4063C108.312 51.5438 107.419 52.4375 106.281 52.4375C102.909 52.4375 100.188 55.1594 100.188 58.5313C100.188 59.6688 99.2937 60.5625 98.1562 60.5625ZM96.125 50.4063C96.8969 50.975 97.5875 51.6657 98.1562 52.4375C98.725 51.6657 99.4156 50.975 100.188 50.4063C99.4156 49.8375 98.725 49.1469 98.1562 48.375C97.5875 49.1469 96.8969 49.8375 96.125 50.4063ZM285.844 215.75C284.706 215.75 283.812 214.856 283.812 213.719C283.812 210.347 281.091 207.625 277.719 207.625C276.581 207.625 275.688 206.731 275.688 205.594C275.688 204.456 276.581 203.563 277.719 203.563C281.091 203.563 283.812 200.841 283.812 197.469C283.812 196.331 284.706 195.438 285.844 195.438C286.981 195.438 287.875 196.331 287.875 197.469C287.875 200.841 290.597 203.563 293.969 203.563C295.106 203.563 296 204.456 296 205.594C296 206.731 295.106 207.625 293.969 207.625C290.597 207.625 287.875 210.347 287.875 213.719C287.875 214.856 286.981 215.75 285.844 215.75ZM283.812 205.594C284.584 206.163 285.275 206.853 285.844 207.625C286.412 206.853 287.103 206.163 287.875 205.594C287.103 205.025 286.412 204.334 285.844 203.563C285.275 204.334 284.584 205.025 283.812 205.594Z" fill="#1D4925"/>
<path d="M191.594 187.312H90.0312C88.8938 187.312 88 186.419 88 185.281C88 178.659 100.106 172.2 109.125 172.2C114 172.2 116.641 173.541 118.103 174.963C120.541 171.997 125.131 167.731 131.266 167.731C136.506 167.731 139.431 169.519 141.016 171.184C144.022 168.178 150.644 162.938 160.312 162.938C164.659 162.938 167.828 164.238 169.656 166.838C170.875 168.544 171.241 170.494 171.322 172.241C174.044 170.737 177.984 169.234 182.9 169.234C187.369 169.234 190.781 172.241 192.488 177.684C193.666 181.462 193.666 185.159 193.666 185.322C193.625 186.419 192.731 187.312 191.594 187.312ZM92.9562 183.25H189.441C189.075 179.838 187.775 173.297 182.859 173.297C175.1 173.297 170.103 178.009 170.062 178.05C169.372 178.7 168.356 178.822 167.544 178.294C166.772 177.766 166.406 176.791 166.731 175.938C167.138 174.759 167.828 171.306 166.325 169.194C165.309 167.772 163.278 167.041 160.312 167.041C149.059 167.041 142.519 175.653 142.438 175.734C141.95 176.344 141.178 176.709 140.406 176.547C139.634 176.384 139.066 175.856 138.862 175.125C138.741 174.8 137.4 171.834 131.266 171.834C124.4 171.834 119.647 179.756 119.606 179.838C119.119 180.65 118.144 181.138 117.209 180.853C116.316 180.569 115.747 179.797 115.788 178.863C115.666 177.928 114.081 176.303 109.084 176.303C102.422 176.262 95.3937 180.122 92.9562 183.25Z" fill="#1D4925"/>
</g>
<path d="M62.0801 17.57L53.0001 10H21.0001L11.9201 17.57C11.1442 18.2249 10.6463 19.1503 10.5275 20.1586C10.4086 21.1669 10.6777 22.1827 11.2801 23L15.0001 28L10.5201 35.46C10.0812 36.1971 9.89096 37.0558 9.97739 37.9093C10.0638 38.7627 10.4223 39.5658 11.0001 40.2L37.0001 69L63.0001 40.2C63.5762 39.5647 63.9329 38.761 64.0175 37.9076C64.1021 37.0541 63.9102 36.1961 63.4701 35.46L59.0001 28L62.7201 23C63.3224 22.1827 63.5915 21.1669 63.4726 20.1586C63.3538 19.1503 62.856 18.2249 62.0801 17.57Z" fill="url(#paint0_linear_221_40)"/>
<path d="M21 10C21 14.23 20.67 11.84 37 69C53.31 11.93 53 14.21 53 10H21Z" fill="url(#paint1_linear_221_40)"/>
<path d="M37 15C45.8366 15 53 12.7614 53 10C53 7.23858 45.8366 5 37 5C28.1634 5 21 7.23858 21 10C21 12.7614 28.1634 15 37 15Z" fill="#C7CDD8"/>
<path d="M37 31C38.1046 31 39 30.1046 39 29C39 27.8954 38.1046 27 37 27C35.8954 27 35 27.8954 35 29C35 30.1046 35.8954 31 37 31Z" fill="url(#paint2_linear_221_40)"/>
<path d="M37 41C38.1046 41 39 40.1046 39 39C39 37.8954 38.1046 37 37 37C35.8954 37 35 37.8954 35 39C35 40.1046 35.8954 41 37 41Z" fill="url(#paint3_linear_221_40)"/>
<path d="M46.56 22.8201C46.3974 22.9384 46.2011 23.0015 46 23.0001C42.7544 23.0001 39.5964 21.9474 37 20.0001V16.0001C39.5964 14.0527 42.7544 13.0001 46 13.0001C46.2017 12.9948 46.3991 13.0583 46.56 13.1801C47.3128 13.7381 47.9245 14.4648 48.3459 15.3018C48.7673 16.1388 48.9868 17.0629 48.9868 18.0001C48.9868 18.9372 48.7673 19.8613 48.3459 20.6983C47.9245 21.5353 47.3128 22.262 46.56 22.8201Z" fill="url(#paint4_linear_221_40)"/>
<path d="M27.44 22.8201C27.6026 22.9384 27.7989 23.0015 28 23.0001C31.2456 23.0001 34.4036 21.9474 37 20.0001V16.0001C34.4036 14.0527 31.2456 13.0001 28 13.0001C27.7983 12.9948 27.6009 13.0583 27.44 13.1801C26.6872 13.7381 26.0756 14.4648 25.6541 15.3018C25.2327 16.1388 25.0132 17.0629 25.0132 18.0001C25.0132 18.9372 25.2327 19.8613 25.6541 20.6983C26.0756 21.5353 26.6872 22.262 27.44 22.8201Z" fill="url(#paint5_linear_221_40)"/>
<path d="M38 14H36C35.4477 14 35 14.4477 35 15V21C35 21.5523 35.4477 22 36 22H38C38.5523 22 39 21.5523 39 21V15C39 14.4477 38.5523 14 38 14Z" fill="url(#paint6_linear_221_40)"/>
<path d="M32 19H35V17H32C31.7348 17 31.4804 17.1054 31.2929 17.2929C31.1054 17.4804 31 17.7348 31 18C31 18.2652 31.1054 18.5196 31.2929 18.7071C31.4804 18.8946 31.7348 19 32 19ZM42 19H39V17H42C42.2652 17 42.5196 17.1054 42.7071 17.2929C42.8946 17.4804 43 17.7348 43 18C43 18.2652 42.8946 18.5196 42.7071 18.7071C42.5196 18.8946 42.2652 19 42 19Z" fill="#CF4055"/>
<defs>
<linearGradient id="paint0_linear_221_40" x1="9.95005" y1="39.5" x2="64.05" y2="39.5" gradientUnits="userSpaceOnUse">
<stop stop-color="#474F72"/>
<stop offset="1" stop-color="#878C9F"/>
</linearGradient>
<linearGradient id="paint1_linear_221_40" x1="21" y1="39.5" x2="53" y2="39.5" gradientUnits="userSpaceOnUse">
<stop stop-color="#D4D8E1"/>
<stop offset="1" stop-color="#F3F4F5"/>
</linearGradient>
<linearGradient id="paint2_linear_221_40" x1="35" y1="29" x2="39" y2="29" gradientUnits="userSpaceOnUse">
<stop stop-color="#474F72"/>
<stop offset="1" stop-color="#878C9F"/>
</linearGradient>
<linearGradient id="paint3_linear_221_40" x1="35" y1="39" x2="39" y2="39" gradientUnits="userSpaceOnUse">
<stop stop-color="#474F72"/>
<stop offset="1" stop-color="#878C9F"/>
</linearGradient>
<linearGradient id="paint4_linear_221_40" x1="37" y1="18.0001" x2="49" y2="18.0001" gradientUnits="userSpaceOnUse">
<stop stop-color="#DA5466"/>
<stop offset="1" stop-color="#F4929C"/>
</linearGradient>
<linearGradient id="paint5_linear_221_40" x1="25" y1="5.00005" x2="37" y2="5.00005" gradientUnits="userSpaceOnUse">
<stop stop-color="#DA5466"/>
<stop offset="1" stop-color="#F4929C"/>
</linearGradient>
<linearGradient id="paint6_linear_221_40" x1="35" y1="5" x2="39" y2="5" gradientUnits="userSpaceOnUse">
<stop stop-color="#DA5466"/>
<stop offset="1" stop-color="#F4929C"/>
</linearGradient>
<clipPath id="clip0_221_40">
<rect width="208" height="208" fill="white" transform="translate(88 24)"/>
</clipPath>
</defs>
</svg>
