<svg width="110" height="110" viewBox="0 0 110 110" fill="none" xmlns="http://www.w3.org/2000/svg">
<path d="M10.3125 75.625V30.9375C8.48914 30.9375 6.74045 31.6618 5.45114 32.9511C4.16183 34.2405 3.4375 35.9891 3.4375 37.8125V85.9375C3.4375 87.7609 4.16183 89.5095 5.45114 90.7989C6.74045 92.0882 8.48914 92.8125 10.3125 92.8125H42.5563C36.1173 88.3393 28.4652 85.9406 20.625 85.9375C17.89 85.9375 15.2669 84.851 13.333 82.917C11.399 80.9831 10.3125 78.36 10.3125 75.625ZM99.6875 30.9375V75.625C99.6875 78.36 98.601 80.9831 96.667 82.917C94.7331 84.851 92.11 85.9375 89.375 85.9375C81.5348 85.9406 73.8827 88.3393 67.4438 92.8125H99.6875C101.511 92.8125 103.26 92.0882 104.549 90.7989C105.838 89.5095 106.562 87.7609 106.562 85.9375V37.8125C106.562 35.9891 105.838 34.2405 104.549 32.9511C103.26 31.6618 101.511 30.9375 99.6875 30.9375Z" fill="white"/>
<path d="M20.625 17.1875C19.7133 17.1875 18.839 17.5497 18.1943 18.1943C17.5497 18.839 17.1875 19.7133 17.1875 20.625V75.625C17.1875 76.5367 17.5497 77.411 18.1943 78.0557C18.839 78.7003 19.7133 79.0625 20.625 79.0625C30.9665 79.0733 40.9993 82.5872 49.0875 89.0312L51.5625 91.025V17.8062C50.4602 17.406 49.2977 17.1968 48.125 17.1875H20.625ZM92.8125 75.625V20.625C92.8125 19.7133 92.4503 18.839 91.8057 18.1943C91.161 17.5497 90.2867 17.1875 89.375 17.1875H61.875C60.7023 17.1968 59.5398 17.406 58.4375 17.8062V91.025L60.9125 89.0312C69.0007 82.5872 79.0335 79.0733 89.375 79.0625C90.2867 79.0625 91.161 78.7003 91.8057 78.0557C92.4503 77.411 92.8125 76.5367 92.8125 75.625Z" fill="white"/>
</svg>
