<svg xmlns="http://www.w3.org/2000/svg" width="300" height="300" fill-rule="evenodd" clip-rule="evenodd" image-rendering="optimizeQuality" shape-rendering="geometricPrecision" text-rendering="geometricPrecision" id="checkmark"><g><path fill="#ed6439" d="M 179.5,39.5 C 231.946,57.3031 259.946,93.9698 263.5,149.5C 261.029,198.793 237.362,233.627 192.5,254C 146.105,270.272 104.938,261.772 69,228.5C 46.7807,205.037 35.9473,177.037 36.5,144.5C 38.899,107.195 55.2323,77.6954 85.5,56C 114.623,37.4372 145.956,31.9372 179.5,39.5 Z M 214.5,103.5 C 213.955,105.593 213.122,107.593 212,109.5C 198.245,122.752 185.078,136.419 172.5,150.5C 171.357,153.068 171.524,155.735 173,158.5C 185.029,170.863 197.362,182.863 210,194.5C 211.765,197.032 213.265,199.699 214.5,202.5C 212.728,209.271 208.395,213.271 201.5,214.5C 199.432,213.625 197.432,212.459 195.5,211C 182.833,198.333 170.167,185.667 157.5,173C 155.342,172.091 153.342,171.925 151.5,172.5C 150.883,172.389 150.383,172.056 150,171.5C 136.833,184.667 123.667,197.833 110.5,211C 107.691,212.741 104.691,213.908 101.5,214.5C 96.6012,212.097 93.2678,208.263 91.5,203C 92.3295,201.184 93.1628,199.351 94,197.5C 107,184.5 120,171.5 133,158.5C 134.457,155.634 134.79,152.634 134,149.5C 120.667,136.167 107.333,122.833 94,109.5C 90.9364,103.324 92.4364,98.1574 98.5,94C 102.334,91.9625 106.001,92.2959 109.5,95C 122.5,108 135.5,121 148.5,134C 151.5,134.667 154.5,134.667 157.5,134C 171.228,119.603 185.561,105.937 200.5,93C 207.81,92.8345 212.477,96.3345 214.5,103.5 Z" opacity=".998"></path></g><g><path fill="#050100" d="M 179.5,39.5 C 218.453,48.0859 245.953,70.7526 262,107.5C 277.075,149.508 272.075,188.841 247,225.5C 217.277,260.638 179.444,275.138 133.5,269C 75.5852,256.752 43.0852,221.252 36,162.5C 35.1808,156.319 35.3475,150.319 36.5,144.5C 35.9473,177.037 46.7807,205.037 69,228.5C 104.938,261.772 146.105,270.272 192.5,254C 237.362,233.627 261.029,198.793 263.5,149.5C 259.946,93.9698 231.946,57.3031 179.5,39.5 Z" opacity=".243"></path></g><g><path fill="#080301" d="M 214.5,103.5 C 212.477,96.3345 207.81,92.8345 200.5,93C 185.561,105.937 171.228,119.603 157.5,134C 154.5,134.667 151.5,134.667 148.5,134C 135.5,121 122.5,108 109.5,95C 106.001,92.2959 102.334,91.9625 98.5,94C 92.4364,98.1574 90.9364,103.324 94,109.5C 107.333,122.833 120.667,136.167 134,149.5C 134.79,152.634 134.457,155.634 133,158.5C 120,171.5 107,184.5 94,197.5C 93.1628,199.351 92.3295,201.184 91.5,203C 93.2678,208.263 96.6012,212.097 101.5,214.5C 87.4079,212.901 82.2412,205.234 86,191.5C 99.4707,177.029 113.304,162.862 127.5,149C 114,135.5 100.5,122 87,108.5C 81.5898,95.404 85.7565,87.0707 99.5,83.5C 102.581,84.0267 105.581,84.86 108.5,86C 122.652,99.3181 136.652,112.818 150.5,126.5C 164.047,111.785 178.381,97.9514 193.5,85C 208.6,82.2756 215.6,88.4423 214.5,103.5 Z" opacity=".263"></path></g><g><path fill="#0a0301" d="M 172.5,150.5 C 186.101,162.599 199.268,175.266 212,188.5C 215.293,192.907 216.127,197.573 214.5,202.5C 213.265,199.699 211.765,197.032 210,194.5C 197.362,182.863 185.029,170.863 173,158.5C 171.524,155.735 171.357,153.068 172.5,150.5 Z" opacity=".103"></path></g><g><path d="M 201.5,214.5 C 197.187,214.452 193.187,213.285 189.5,211C 176.631,198.298 163.965,185.465 151.5,172.5C 153.342,171.925 155.342,172.091 157.5,173C 170.167,185.667 182.833,198.333 195.5,211C 197.432,212.459 199.432,213.625 201.5,214.5 Z" opacity=".066"></path></g></svg>