<svg width="63" height="63" viewBox="0 0 63 63" fill="none" xmlns="http://www.w3.org/2000/svg">
<path d="M31.5 0.25C25.3193 0.25 19.2775 2.08278 14.1384 5.51658C8.99941 8.95037 4.99402 13.831 2.62878 19.5411C0.26354 25.2513 -0.355314 31.5347 0.850474 37.5966C2.05626 43.6585 5.03254 49.2267 9.40293 53.5971C13.7733 57.9675 19.3415 60.9438 25.4034 62.1496C31.4653 63.3553 37.7487 62.7365 43.4589 60.3712C49.1691 58.006 54.0496 54.0006 57.4834 48.8616C60.9172 43.7225 62.75 37.6807 62.75 31.5C62.75 27.3962 61.9417 23.3326 60.3713 19.5411C58.8008 15.7497 56.4989 12.3047 53.5971 9.40291C50.6953 6.50108 47.2503 4.19922 43.4589 2.62876C39.6674 1.05831 35.6038 0.25 31.5 0.25ZM44.9375 24.0313L30.6563 42.7813C30.3651 43.1594 29.9913 43.4659 29.5633 43.6772C29.1354 43.8884 28.6648 43.9989 28.1875 44C27.7128 44.0026 27.2438 43.897 26.8161 43.6912C26.3883 43.4854 26.0131 43.1849 25.7188 42.8125L18.0938 33.0938C17.8414 32.7696 17.6553 32.3988 17.5462 32.0027C17.4371 31.6066 17.4071 31.1929 17.4579 30.7852C17.5087 30.3775 17.6392 29.9838 17.8422 29.6265C18.0451 29.2693 18.3164 28.9555 18.6406 28.7031C19.2954 28.1934 20.1258 27.9647 20.9492 28.0672C21.3569 28.118 21.7506 28.2486 22.1079 28.4515C22.4651 28.6545 22.7789 28.9258 23.0313 29.25L28.125 35.75L39.9375 20.125C40.1878 19.7967 40.5004 19.5209 40.8573 19.3134C41.2142 19.1059 41.6085 18.9707 42.0177 18.9156C42.4268 18.8604 42.8428 18.8864 43.242 18.9921C43.6411 19.0977 44.0155 19.2809 44.3438 19.5313C44.6721 19.7816 44.9479 20.0941 45.1554 20.451C45.3629 20.808 45.4981 21.2022 45.5532 21.6114C45.6083 22.0206 45.5823 22.4366 45.4767 22.8357C45.3711 23.2348 45.1878 23.6092 44.9375 23.9375V24.0313Z" fill="#52CC99"/>
<path d="M44.9375 24.0313L30.6563 42.7813C30.3651 43.1594 29.9913 43.4659 29.5633 43.6772C29.1354 43.8884 28.6648 43.9989 28.1875 44C27.7128 44.0026 27.2438 43.897 26.8161 43.6912C26.3883 43.4854 26.0131 43.1849 25.7188 42.8125L18.0938 33.0938C17.8414 32.7696 17.6553 32.3988 17.5462 32.0027C17.4371 31.6066 17.4071 31.1929 17.4579 30.7852C17.5087 30.3775 17.6392 29.9838 17.8422 29.6265C18.0451 29.2693 18.3164 28.9555 18.6406 28.7031C19.2954 28.1934 20.1258 27.9647 20.9492 28.0672C21.3569 28.118 21.7506 28.2486 22.1079 28.4515C22.4651 28.6545 22.7789 28.9258 23.0313 29.25L28.125 35.75L39.9375 20.125C40.1878 19.7967 40.5004 19.5209 40.8573 19.3134C41.2142 19.1059 41.6085 18.9707 42.0177 18.9156C42.4268 18.8604 42.8428 18.8864 43.242 18.9921C43.6411 19.0977 44.0155 19.2809 44.3438 19.5313C44.6721 19.7816 44.9479 20.0941 45.1554 20.451C45.3629 20.808 45.4981 21.2022 45.5532 21.6114C45.6083 22.0206 45.5823 22.4366 45.4767 22.8357C45.3711 23.2348 45.1878 23.6092 44.9375 23.9375V24.0313Z" fill="#52CC99"/>
<path d="M44.9375 24.0313L30.6563 42.7813C30.3651 43.1594 29.9913 43.4659 29.5633 43.6772C29.1354 43.8884 28.6648 43.9989 28.1875 44C27.7128 44.0026 27.2438 43.897 26.8161 43.6912C26.3883 43.4854 26.0131 43.1849 25.7188 42.8125L18.0938 33.0938C17.8414 32.7696 17.6553 32.3988 17.5462 32.0027C17.4371 31.6066 17.4071 31.1929 17.4579 30.7852C17.5087 30.3775 17.6392 29.9838 17.8422 29.6265C18.0451 29.2693 18.3164 28.9555 18.6406 28.7031C19.2954 28.1934 20.1258 27.9647 20.9492 28.0672C21.3569 28.118 21.7506 28.2486 22.1079 28.4515C22.4651 28.6545 22.7789 28.9258 23.0313 29.25L28.125 35.75L39.9375 20.125C40.1878 19.7967 40.5004 19.5209 40.8573 19.3134C41.2142 19.1059 41.6085 18.9707 42.0177 18.9156C42.4268 18.8604 42.8428 18.8864 43.242 18.9921C43.6411 19.0977 44.0155 19.2809 44.3438 19.5313C44.6721 19.7816 44.9479 20.0941 45.1554 20.451C45.3629 20.808 45.4981 21.2022 45.5532 21.6114C45.6083 22.0206 45.5823 22.4366 45.4767 22.8357C45.3711 23.2348 45.1878 23.6092 44.9375 23.9375V24.0313Z" fill="white"/>
</svg>
