<svg width="48" height="48" viewBox="0 0 48 48" fill="none" xmlns="http://www.w3.org/2000/svg">
<path d="M28.1125 24L46.4875 5.65417C47.0367 5.10495 47.3453 4.36005 47.3453 3.58334C47.3453 2.80663 47.0367 2.06173 46.4875 1.51251C45.9383 0.963288 45.1934 0.654739 44.4167 0.654739C43.64 0.654739 42.8951 0.963288 42.3459 1.51251L24 19.8875L5.65419 1.51251C5.10497 0.963288 4.36007 0.65474 3.58336 0.65474C2.80665 0.65474 2.06174 0.963288 1.51253 1.51251C0.963306 2.06173 0.654759 2.80663 0.654759 3.58334C0.654759 4.36005 0.963306 5.10495 1.51253 5.65417L19.8875 24L1.51253 42.3458C1.23915 42.617 1.02217 42.9396 0.874093 43.295C0.726018 43.6504 0.64978 44.0316 0.64978 44.4167C0.64978 44.8017 0.726018 45.1829 0.874093 45.5384C1.02217 45.8938 1.23915 46.2164 1.51253 46.4875C1.78367 46.7609 2.10625 46.9779 2.46168 47.1259C2.8171 47.274 3.19832 47.3503 3.58336 47.3503C3.96839 47.3503 4.34962 47.274 4.70504 47.1259C5.06046 46.9779 5.38305 46.7609 5.65419 46.4875L24 28.1125L42.3459 46.4875C42.617 46.7609 42.9396 46.9779 43.295 47.1259C43.6504 47.274 44.0317 47.3503 44.4167 47.3503C44.8017 47.3503 45.1829 47.274 45.5384 47.1259C45.8938 46.9779 46.2164 46.7609 46.4875 46.4875C46.7609 46.2164 46.9779 45.8938 47.126 45.5384C47.274 45.1829 47.3503 44.8017 47.3503 44.4167C47.3503 44.0316 47.274 43.6504 47.126 43.295C46.9779 42.9396 46.7609 42.617 46.4875 42.3458L28.1125 24Z" fill="#727272"/>
</svg>
