<svg width="50" height="50" viewBox="0 0 50 50" fill="none" xmlns="http://www.w3.org/2000/svg">
<rect x="18" y="12" width="16" height="28" fill="white"/>
<path d="M25 4.6875C20.9826 4.6875 17.0554 5.87881 13.715 8.11077C10.3746 10.3427 7.77111 13.5151 6.23371 17.2267C4.6963 20.9384 4.29405 25.0225 5.07781 28.9628C5.86157 32.903 7.79615 36.5224 10.6369 39.3631C13.4777 42.2039 17.097 44.1384 21.0372 44.9222C24.9775 45.706 29.0616 45.3037 32.7733 43.7663C36.4849 42.2289 39.6573 39.6254 41.8892 36.285C44.1212 32.9446 45.3125 29.0174 45.3125 25C45.3125 19.6128 43.1725 14.4462 39.3631 10.6369C35.5538 6.82756 30.3872 4.6875 25 4.6875ZM28.125 36.7188H21.875V32.5625H28.125V36.7188ZM28.125 31H21.875V13.2812H28.125V31Z" fill="#D50000"/>
</svg>
