<svg width="110" height="110" viewBox="0 0 110 110" fill="none" xmlns="http://www.w3.org/2000/svg">
<path d="M56.719 63.2194C56.719 61.4208 56.4078 59.6399 55.8031 57.9783C55.1985 56.3167 54.3123 54.8069 53.1951 53.5352C52.0779 52.2634 50.7516 51.2546 49.2919 50.5663C47.8322 49.8781 46.2678 49.5238 44.6878 49.5238H27.5004L15.4478 70.1038C13.9959 72.583 11.8394 74.4184 9.3398 75.3023C6.84021 76.1862 4.14964 76.0648 1.71936 74.9584L17.188 37.7848L44.1464 25.8501C47.3062 24.4532 50.7003 23.8775 54.0806 24.1653C57.4609 24.453 60.742 25.5968 63.6841 27.5131L77.7735 36.672C79.2591 37.6393 80.9074 38.2384 82.6104 38.4301C84.3135 38.6219 86.033 38.402 87.6562 37.7848V73.0019" fill="white"/>
<path d="M108.282 29.9587H94.5316V80.8279H108.282V29.9587Z" fill="white"/>
<path d="M108.282 74.9584H94.5316V80.8279H108.282V74.9584Z" fill="white"/>
<path d="M108.281 82.7844H94.5314C94.0755 82.7844 93.6384 82.5783 93.316 82.2113C92.9937 81.8444 92.8126 81.3468 92.8126 80.8279V29.9587C92.8126 29.4398 92.9937 28.9422 93.316 28.5752C93.6384 28.2083 94.0755 28.0022 94.5314 28.0022H108.281C108.737 28.0022 109.174 28.2083 109.497 28.5752C109.819 28.9422 110 29.4398 110 29.9587C110 30.4776 109.819 30.9752 109.497 31.3422C109.174 31.7091 108.737 31.9152 108.281 31.9152H96.2501V78.8714H108.281C108.737 78.8714 109.174 79.0775 109.497 79.4444C109.819 79.8113 110 80.309 110 80.8279C110 81.3468 109.819 81.8444 109.497 82.2113C109.174 82.5783 108.737 82.7844 108.281 82.7844Z" fill="white"/>
<path d="M94.5314 33.8718H87.6565V76.9149H94.5314V33.8718Z" fill="white"/>
<path d="M94.5314 71.0453H87.6565V76.9149H94.5314V71.0453Z" fill="white"/>
<path d="M94.5313 78.8714H87.6564C87.2005 78.8714 86.7634 78.6652 86.441 78.2983C86.1187 77.9314 85.9376 77.4338 85.9376 76.9149V33.8717C85.9376 33.3528 86.1187 32.8552 86.441 32.4883C86.7634 32.1214 87.2005 31.9152 87.6564 31.9152H94.5313C94.9871 31.9152 95.4243 32.1214 95.7466 32.4883C96.069 32.8552 96.25 33.3528 96.25 33.8717V76.9149C96.25 77.4338 96.069 77.9314 95.7466 78.2983C95.4243 78.6652 94.9871 78.8714 94.5313 78.8714ZM89.3751 74.9584H92.8126V35.8282H89.3751V74.9584Z" fill="white"/>
<path d="M87.6564 74.9584C87.2006 74.9584 86.7634 74.7523 86.4411 74.3853C86.1188 74.0184 85.9377 73.5208 85.9377 73.0019V40.2646C82.833 40.8111 79.6573 40.1429 76.9294 38.3693L62.8314 29.2006C60.1107 27.431 57.0771 26.3757 53.9522 26.1117C50.8273 25.8477 47.69 26.3816 44.7696 27.6745L38.4361 30.4772C38.225 30.5746 37.999 30.6233 37.7713 30.6205C37.5435 30.6176 37.3185 30.5633 37.1094 30.4606C36.9002 30.3578 36.7111 30.2088 36.553 30.0222C36.3949 29.8356 36.271 29.615 36.1884 29.3734C36.1058 29.1318 36.0663 28.8739 36.072 28.6147C36.0778 28.3555 36.1287 28.1002 36.2219 27.8636C36.3151 27.627 36.4487 27.4139 36.6149 27.2366C36.7811 27.0593 36.9766 26.9213 37.19 26.8308L43.5235 24.0281C46.9211 22.5234 50.571 21.9018 54.2066 22.2086C57.8422 22.5153 61.3717 23.7427 64.5373 25.8012L78.633 34.9723C79.9081 35.8012 81.3223 36.3147 82.7834 36.4795C84.2445 36.6443 85.7198 36.4565 87.1129 35.9285C87.3712 35.8305 87.6464 35.8037 87.9156 35.8505C88.1849 35.8972 88.4405 36.0162 88.6614 36.1974C88.8824 36.3787 89.0623 36.6172 89.1864 36.8932C89.3105 37.1691 89.3752 37.4747 89.3752 37.7848V73.0019C89.3752 73.5208 89.1941 74.0184 88.8717 74.3853C88.5494 74.7523 88.1123 74.9584 87.6564 74.9584ZM1.07501 76.7755C0.857743 76.6756 0.660718 76.5262 0.496039 76.3364C0.331361 76.1467 0.202506 75.9206 0.117393 75.6721C0.0322801 75.4235 -0.0072934 75.1578 0.00110416 74.8913C0.00950172 74.6247 0.0656929 74.3629 0.166225 74.122L15.6349 36.9484C15.8243 36.4994 16.157 36.1495 16.5651 35.9701L28.5963 30.646C28.8074 30.5485 29.0333 30.4998 29.2611 30.5027C29.4889 30.5056 29.7138 30.5599 29.923 30.6626C30.1321 30.7653 30.3212 30.9143 30.4793 31.101C30.6374 31.2876 30.7614 31.5081 30.844 31.7498C30.9265 31.9914 30.9661 32.2493 30.9603 32.5085C30.9546 32.7677 30.9036 33.023 30.8104 33.2596C30.7172 33.4962 30.5837 33.7093 30.4175 33.8866C30.2513 34.0639 30.0558 34.2019 29.8424 34.2924L18.4557 39.3353L4.13221 73.7356C6.00364 74.136 7.93712 73.9032 9.69357 73.066C11.45 72.2289 12.9524 70.8241 14.015 69.0253L26.0676 48.4428C26.2244 48.1736 26.4373 47.9527 26.6874 47.7999C26.9374 47.6471 27.2168 47.5672 27.5006 47.5673H44.688C48.3335 47.5718 51.8285 49.2223 54.4062 52.1567C56.984 55.091 58.4339 59.0696 58.4379 63.2193C58.4379 63.7382 58.2568 64.2359 57.9345 64.6028C57.6121 64.9697 57.175 65.1759 56.7191 65.1759C56.2633 65.1759 55.8261 64.9697 55.5038 64.6028C55.1815 64.2359 55.0004 63.7382 55.0004 63.2193C54.9976 60.107 53.9102 57.123 51.9768 54.9222C50.0435 52.7214 47.4221 51.4835 44.688 51.4803H28.4201L16.8767 71.1897C15.1982 74.0337 12.7156 76.1386 9.84118 77.1547C6.96673 78.1708 3.87342 78.037 1.07501 76.7755Z" fill="white"/>
<path d="M43.2982 16.8042L4.91919 93.2428L13.8724 99.0679L52.2514 22.6293L43.2982 16.8042Z" fill="white"/>
<path d="M48.8989 20.4526L10.6462 96.6267L5.04744 92.9827L4.91638 93.2468L13.8689 99.0723L52.2526 22.6365L48.8989 20.4526Z" fill="white"/>
<path d="M13.016 100.77L4.06351 94.9441C3.86726 94.8171 3.69492 94.6473 3.55632 94.4445C3.41772 94.2417 3.31558 94.0097 3.25573 93.762C3.19587 93.5142 3.17949 93.2554 3.2075 93.0005C3.23551 92.7455 3.30737 92.4993 3.41898 92.2759L41.807 15.8401C41.9185 15.6164 42.0678 15.4199 42.2461 15.2619C42.4245 15.1039 42.6284 14.9875 42.8464 14.9194C43.0643 14.8512 43.2918 14.8327 43.5161 14.8648C43.7403 14.8969 43.9567 14.979 44.1531 15.1064L53.1055 20.9319C53.3021 21.0589 53.4747 21.2288 53.6134 21.4318C53.7522 21.6348 53.8545 21.867 53.9143 22.1151C53.9742 22.3631 53.9905 22.6222 53.9623 22.8774C53.9341 23.1327 53.862 23.3791 53.7501 23.6025L15.3621 100.043C15.25 100.266 15.1003 100.462 14.9217 100.619C14.7431 100.777 14.5391 100.892 14.3212 100.96C14.1033 101.027 13.8759 101.045 13.652 101.012C13.428 100.98 13.2119 100.897 13.016 100.77ZM7.26036 92.518L13.2308 96.4017L49.9087 23.3555L43.9382 19.4719L7.26036 92.518Z" fill="white"/>
<path d="M4.91644 93.2468L3.42114 108.048L13.8689 99.0723L4.91644 93.2468Z" fill="white"/>
<path d="M1.71947 107.825L3.22337 93.0218C3.25681 92.7007 3.35963 92.3941 3.52262 92.1294C3.68561 91.8646 3.9037 91.65 4.15738 91.5046C4.41106 91.3593 4.69243 91.2877 4.97634 91.2964C5.26024 91.3051 5.53783 91.3937 5.78428 91.5544L14.7368 97.3799C14.9823 97.5422 15.1887 97.7713 15.3375 98.0465C15.4863 98.3218 15.5728 98.6348 15.5894 98.9575C15.606 99.2801 15.5522 99.6024 15.4326 99.8956C15.313 100.189 15.1316 100.444 14.9043 100.637L4.45656 109.611C4.188 109.839 3.86659 109.973 3.53191 109.996C3.19724 110.02 2.86391 109.931 2.57298 109.741C2.28206 109.551 2.04625 109.269 1.89459 108.928C1.74294 108.588 1.68206 108.205 1.71947 107.825ZM6.32998 96.4163L5.58663 103.736L10.7428 99.2973L6.32998 96.4163Z" fill="white"/>
<path d="M56.3065 2.73885C55.7187 2.35614 55.0704 2.10898 54.3987 2.01149C53.7269 1.914 53.0449 1.96808 52.3916 2.17066C51.7382 2.37323 51.1263 2.72033 50.5907 3.19212C50.0552 3.66392 49.6066 4.25117 49.2704 4.92035L46.7117 10.017L55.6641 15.8425L58.2229 10.7458C58.9012 9.39469 59.0804 7.79219 58.721 6.29069C58.3617 4.78919 57.4932 3.51161 56.3065 2.73885Z" fill="white"/>
<path d="M53.3115 1.98556C54.1933 2.88095 54.7782 4.09392 54.9682 5.42149C55.1583 6.74906 54.942 8.11067 54.3556 9.27843L52.1943 13.573L55.664 15.8327L58.2228 10.7458C60.2853 6.6396 57.4365 1.58936 53.3115 1.98556Z" fill="white"/>
<path d="M54.8113 17.5398L45.8588 11.7143C45.6626 11.5873 45.4902 11.4175 45.3516 11.2147C45.213 11.0119 45.1109 10.78 45.051 10.5322C44.9912 10.2844 44.9748 10.0257 45.0028 9.77067C45.0308 9.51569 45.1027 9.26948 45.2143 9.04612L47.7752 3.94942C48.2232 3.0561 48.8215 2.27198 49.5357 1.64183C50.2499 1.01169 51.0662 0.547849 51.9379 0.276807C52.8096 0.00576595 53.7197 -0.067173 54.6162 0.0621559C55.5127 0.191485 56.378 0.520549 57.1627 1.03056C57.9475 1.54057 58.6363 2.22154 59.1899 3.03458C59.7435 3.84763 60.1509 4.77683 60.389 5.76914C60.6271 6.76144 60.6912 7.79742 60.5776 8.81791C60.464 9.8384 60.1749 10.8234 59.7269 11.7168L57.1488 16.8135C56.9224 17.2614 56.5495 17.5892 56.1116 17.7253C55.6737 17.8613 55.2062 17.7947 54.8113 17.5398ZM49.0578 9.28824L55.0261 13.1719L56.732 9.77492C57.1844 8.87397 57.3038 7.80537 57.0641 6.80416C56.8244 5.80295 56.2451 4.95114 55.4537 4.4361C55.0611 4.18162 54.6284 4.01771 54.1802 3.95373C53.732 3.88975 53.2771 3.92697 52.8415 4.06325C52.4059 4.19953 51.9982 4.4322 51.6417 4.74796C51.2852 5.06372 50.9868 5.45638 50.7637 5.90348L49.0578 9.28824Z" fill="white"/>
<path d="M55.6695 15.8389L46.7163 10.0138L43.3048 16.8083L52.2581 22.6334L55.6695 15.8389Z" fill="white"/>
<path d="M46.712 10.017L46.3146 10.807L51.7973 14.3751L48.7831 20.3792L52.2528 22.6365L55.6645 15.8425L46.712 10.017Z" fill="white"/>
<path d="M87.6565 73.0019H82.5003L76.7211 77.7C74.1122 79.8216 71.1561 81.3259 68.0275 82.1241C64.8989 82.9222 61.6615 82.9979 58.5067 82.3467C55.8277 81.7939 54.8909 81.2681 47.6056 78.1597C45.6757 77.337 43.6316 76.9154 41.5707 76.9149H25.782V73.0019C25.782 70.4074 26.6874 67.9192 28.299 66.0846C29.9106 64.25 32.0965 63.2194 34.3757 63.2194H56.7193" fill="white"/>
<path d="M85.9379 69.0889V73.0019H82.5004L76.7212 77.6999C73.5231 80.2997 69.8125 81.9645 65.9163 82.5479C62.02 83.1313 58.0575 82.6154 54.3776 81.0456L47.6165 78.1597C45.6831 77.3356 43.6353 76.9139 41.5708 76.9149H25.7821C25.7821 72.8772 25.7284 72.3244 25.954 71.0454H41.5708C43.6317 71.0459 45.6758 71.4675 47.6057 72.2902L54.3668 75.1761C58.0482 76.7482 62.0128 77.2654 65.9111 76.682C69.8095 76.0985 73.5219 74.4324 76.7212 71.8304L78.5559 69.6807C78.7163 69.4932 78.908 69.3442 79.1198 69.2425C79.3316 69.1409 79.5592 69.0886 79.7891 69.0889H85.9379Z" fill="white"/>
<path d="M51.3996 24.3338L42.4472 18.5083C42.2509 18.3813 42.0786 18.2115 41.94 18.0087C41.8014 17.8059 41.6992 17.574 41.6394 17.3262C41.5795 17.0784 41.5631 16.8196 41.5911 16.5647C41.6192 16.3097 41.691 16.0635 41.8026 15.8401L45.2143 9.04614C45.3259 8.82243 45.4751 8.62596 45.6535 8.46797C45.8318 8.30999 46.0358 8.19359 46.2537 8.12544C46.4716 8.05729 46.6992 8.03873 46.9234 8.07082C47.1476 8.10291 47.3641 8.18502 47.5604 8.31245L56.5129 14.138C56.7094 14.265 56.882 14.4348 57.0208 14.6378C57.1596 14.8409 57.2618 15.0731 57.3217 15.3211C57.3816 15.5692 57.3979 15.8282 57.3697 16.0835C57.3415 16.3387 57.2693 16.5851 57.1574 16.8086L53.7457 23.6001C53.6341 23.8238 53.4849 24.0203 53.3066 24.1783C53.1282 24.3363 52.9242 24.4527 52.7063 24.5208C52.4884 24.589 52.2608 24.6075 52.0366 24.5754C51.8124 24.5433 51.5959 24.4612 51.3996 24.3338ZM45.644 16.0822L51.6145 19.9659L53.3203 16.5689L47.352 12.6852L45.644 16.0822ZM53.7629 82.8798L47.0018 79.9915C45.2653 79.2493 43.4255 78.8698 41.5706 78.8714H25.7818C25.326 78.8714 24.8888 78.6653 24.5665 78.2984C24.2442 77.9314 24.0631 77.4338 24.0631 76.9149V73.0019C24.066 69.8895 25.1534 66.9055 27.0867 64.7047C29.02 62.5039 31.6414 61.2661 34.3755 61.2629H56.7191C57.175 61.2629 57.6121 61.469 57.9345 61.8359C58.2568 62.2028 58.4379 62.7005 58.4379 63.2194C58.4379 63.7383 58.2568 64.2359 57.9345 64.6028C57.6121 64.9697 57.175 65.1759 56.7191 65.1759H34.3755C32.5522 65.1759 30.8035 66.0004 29.5142 67.4681C28.2249 68.9357 27.5006 70.9263 27.5006 73.0019V74.9584H41.5706C43.8378 74.9574 46.0866 75.4213 48.2092 76.3279L54.9703 79.2138C58.3874 80.6756 62.0681 81.1569 65.6874 80.6152C69.3066 80.0735 72.753 78.5255 75.7219 76.1078L81.5012 71.4098C81.7927 71.1728 82.142 71.0454 82.5002 71.0454H87.6564C88.1122 71.0454 88.5494 71.2515 88.8717 71.6184C89.1941 71.9853 89.3751 72.483 89.3751 73.0019C89.3751 73.5208 89.1941 74.0184 88.8717 74.3854C88.5494 74.7523 88.1122 74.9584 87.6564 74.9584H83.0502L77.72 79.2921C74.2923 82.0829 70.3137 83.8701 66.1355 84.4958C61.9573 85.1215 57.708 84.5665 53.7629 82.8798Z" fill="white"/>
</svg>
