<svg width="72" height="110" viewBox="0 0 72 110" fill="none" xmlns="http://www.w3.org/2000/svg">
<path d="M71.3316 25.7202C70.3424 19.5198 65.6437 0 45.3653 0C42.645 0 39.9247 0.229645 36.9571 0.91858C27.5598 2.98539 14.4529 13.3194 7.03399 22.0459C5.7975 23.4238 5.3029 24.572 5.0556 25.9499C0.35693 50.5219 -2.11606 87.2651 2.33532 103.8C3.81911 109.081 10.4962 110 14.4529 110C16.9259 110 19.3989 109.77 21.3773 109.311C31.022 106.785 49.322 94.6138 55.7518 86.5762C65.6438 73.9457 74.5465 45.6994 71.3316 25.7202ZM54.5153 79.2276C54.268 79.6868 53.7734 79.9165 53.2788 79.9165C53.0315 79.9165 52.7842 79.9165 52.5369 79.6868C51.795 79.2276 51.795 78.309 52.0423 77.8497C65.1492 60.167 63.9127 35.8246 60.4505 18.6013C59.9559 16.3048 57.4829 14.0083 53.7734 13.0898C46.6018 10.7933 35.9679 11.9415 27.5598 19.5198C23.603 23.1942 20.8827 26.1795 20.1408 31.691C20.3881 31.9207 20.3881 31.9207 20.3881 32.1503C20.8827 33.5282 26.3233 37.4321 28.7963 37.8914C30.2801 38.1211 31.7638 38.5804 33.2476 38.81C38.6882 39.7286 45.6126 40.6472 49.322 46.8476C52.0423 51.2109 50.8058 62.4635 47.0964 68.8935C45.3653 72.1086 42.8923 73.7161 40.6666 73.9457C33.9895 74.405 29.0436 77.3904 25.0868 79.6868L23.8503 80.3758C21.13 81.9833 17.1732 82.9019 13.4638 82.9019C11.98 82.9019 10.4962 82.6722 9.50698 82.4426C7.52859 81.7537 6.53939 80.8351 6.2921 80.1461C3.07721 73.0271 6.0448 70.0417 8.02318 67.9749C9.01238 67.0564 9.50698 66.3674 9.75427 65.4489C10.0016 64.3006 9.25968 62.6931 8.76508 60.8559C7.52859 57.1816 6.29209 52.8184 9.75427 49.833C10.9908 48.6848 13.2165 49.3737 14.4529 49.833C15.1948 50.0626 18.4097 51.6701 18.4097 53.7369C18.4097 54.4259 17.6678 55.1148 16.9259 55.1148C16.184 55.1148 15.4421 54.4259 15.4421 53.7369C15.1948 53.048 12.2273 51.6701 11.4854 51.8998C9.75428 53.5073 10.4962 56.263 11.4854 59.9374C12.2273 62.0042 12.7219 64.071 12.4746 65.6785C12.2273 67.286 11.2381 68.4342 10.0016 69.5825C8.02319 71.6493 6.2921 73.4864 8.76508 78.9979C9.01238 79.2276 9.50698 79.6868 10.2489 79.9165C13.4638 80.8351 19.1516 79.9165 22.1192 78.0793L23.3557 77.3904C27.3125 74.8643 33.0003 71.6493 40.172 71.19C41.6558 71.19 43.1396 69.8121 44.3761 67.5157C47.591 61.7745 48.8274 51.6701 46.8491 47.9958C43.8815 42.9436 38.1936 42.2547 33.0003 41.3361C31.2692 41.1065 29.7855 40.8768 28.3017 40.4175C26.076 39.9582 22.3665 37.6618 19.8935 35.595C19.8935 38.1211 20.1408 41.1065 20.6354 44.7808C20.6354 45.4697 20.1408 46.1587 19.3989 46.3883C18.657 46.618 17.9151 45.929 17.6678 45.2401C15.4421 29.6242 18.1624 24.1127 25.5814 17.453C34.7314 9.1858 46.6018 7.80793 54.5153 10.1044C59.4613 11.4823 62.6762 14.4676 63.4181 17.9123C66.8802 35.595 68.1167 60.6263 54.5153 79.2276Z" fill="white"/>
</svg>
