<svg width="65" height="65" viewBox="0 0 65 65" fill="none" xmlns="http://www.w3.org/2000/svg">
<path d="M28.3456 1.39016C27.5907 0.300034 26.27 -0.224107 24.991 0.0902937C10.2732 3.71733 0 16.8628 0 32.0629C0 50.2192 14.7808 65 32.9371 65C48.1372 65 61.2826 54.7268 64.9097 40.0089C65.2241 38.73 64.7 37.4091 63.6098 36.6544C62.5406 35.9207 61.0939 35.9416 60.0247 36.6964C56.1461 39.4429 51.5964 40.9105 46.8582 40.9105C34.2998 40.9105 24.0895 30.7002 24.0895 18.1417C24.0895 13.4036 25.5571 8.85393 28.3036 4.97535C29.0584 3.90608 29.0794 2.45943 28.3456 1.39016Z" fill="#DCDCDC"/>
</svg>
