<svg width="110" height="110" viewBox="0 0 110 110" fill="none" xmlns="http://www.w3.org/2000/svg">
<path d="M39.5312 38.9583H18.9063C17.6907 38.9583 16.5249 38.4754 15.6653 37.6159C14.8058 36.7563 14.3229 35.5905 14.3229 34.375V13.75C14.3229 12.5344 14.8058 11.3686 15.6653 10.5091C16.5249 9.64951 17.6907 9.16663 18.9063 9.16663C20.1218 9.16663 21.2876 9.64951 22.1472 10.5091C23.0067 11.3686 23.4896 12.5344 23.4896 13.75V29.7916H39.5312C40.7468 29.7916 41.9126 30.2745 42.7722 31.1341C43.6317 31.9936 44.1146 33.1594 44.1146 34.375C44.1146 35.5905 43.6317 36.7563 42.7722 37.6159C41.9126 38.4754 40.7468 38.9583 39.5312 38.9583Z" fill="white"/>
<path d="M96.25 59.5834C95.0344 59.5834 93.8686 59.1005 93.0091 58.241C92.1496 57.3814 91.6667 56.2156 91.6667 55.0001C91.6702 46.9313 89.0104 39.0869 84.1 32.6843C79.1897 26.2817 72.3034 21.6787 64.5097 19.5898C56.716 17.5009 48.4507 18.0427 40.9965 21.1313C33.5422 24.2198 27.3158 29.6824 23.2833 36.6713C22.6743 37.7234 21.6723 38.4905 20.4978 38.8038C19.3232 39.1171 18.0723 38.9509 17.0202 38.3419C15.9681 37.7329 15.2011 36.7309 14.8878 35.5564C14.5745 34.3818 14.7406 33.1309 15.3496 32.0788C20.3924 23.3441 28.1769 16.5177 37.4954 12.6587C46.8139 8.79973 57.1454 8.12388 66.8872 10.736C76.629 13.3481 85.2365 19.1022 91.3743 27.1056C97.512 35.1089 100.837 44.9141 100.833 55.0001C100.833 56.2156 100.35 57.3814 99.4909 58.241C98.6314 59.1005 97.4656 59.5834 96.25 59.5834ZM91.0938 100.833C89.8782 100.833 88.7124 100.351 87.8528 99.491C86.9933 98.6314 86.5104 97.4656 86.5104 96.2501V80.2084H70.4688C69.2532 80.2084 68.0874 79.7255 67.2278 78.866C66.3683 78.0064 65.8854 76.8406 65.8854 75.6251C65.8854 74.4095 66.3683 73.2437 67.2278 72.3842C68.0874 71.5246 69.2532 71.0417 70.4688 71.0417H91.0938C92.3093 71.0417 93.4751 71.5246 94.3347 72.3842C95.1942 73.2437 95.6771 74.4095 95.6771 75.6251V96.2501C95.6771 97.4656 95.1942 98.6314 94.3347 99.491C93.4751 100.351 92.3093 100.833 91.0938 100.833Z" fill="white"/>
<path d="M55 100.833C42.8487 100.819 31.1993 95.9852 22.607 87.3929C14.0148 78.8007 9.18122 67.1512 9.16667 55C9.16667 53.7844 9.64955 52.6186 10.5091 51.7591C11.3686 50.8995 12.5344 50.4166 13.75 50.4166C14.9656 50.4166 16.1314 50.8995 16.9909 51.7591C17.8504 52.6186 18.3333 53.7844 18.3333 55C18.3298 63.0687 20.9896 70.9131 25.9 77.3157C30.8103 83.7184 37.6966 88.3213 45.4903 90.4102C53.284 92.4992 61.5493 91.9573 69.0035 88.8687C76.4578 85.7802 82.6843 80.3176 86.7167 73.3287C87.0182 72.8078 87.4194 72.3513 87.8974 71.9854C88.3753 71.6196 88.9207 71.3514 89.5022 71.1963C90.0838 71.0411 90.6903 71.0021 91.2869 71.0813C91.8836 71.1605 92.4589 71.3565 92.9798 71.6581C93.5007 71.9596 93.9572 72.3608 94.3231 72.8388C94.6889 73.3167 94.9571 73.8621 95.1122 74.4437C95.2674 75.0252 95.3064 75.6317 95.2272 76.2284C95.148 76.825 94.952 77.4003 94.6504 77.9212C90.6194 84.8717 84.8374 90.6446 77.8806 94.6647C70.9237 98.6847 63.0348 100.812 55 100.833Z" fill="white"/>
</svg>
