<svg width="48" height="48" viewBox="0 0 48 48" fill="none" xmlns="http://www.w3.org/2000/svg">
<path d="M24.286 19.2414C23.4385 19.2414 22.6257 19.5865 22.0264 20.2009C21.4272 20.8152 21.0905 21.6484 21.0905 22.5172V29.7241C21.0897 30.3347 20.9701 30.939 20.7385 31.5015C20.5069 32.064 20.1681 32.5735 19.742 33H23.6469C24.6639 33 25.6393 32.5858 26.3584 31.8486C27.0775 31.1114 27.4815 30.1115 27.4815 29.069V22.5172C27.4815 21.6484 27.1449 20.8152 26.5456 20.2009C25.9463 19.5865 25.1335 19.2414 24.286 19.2414ZM19.8123 25.9176C19.4024 26.0668 18.961 26.1007 18.5341 26.0159C18.5341 26.1666 18.6044 26.0617 18.042 26.5203C17.0933 27.303 15.917 27.7387 14.6994 27.7586C13.415 27.8923 12.1629 28.2537 10.999 28.8266C10.033 29.7697 8.78037 30.3443 7.45063 30.454C6.1209 30.5637 4.79474 30.202 3.69403 29.4293C2.22767 30.3349 0.967969 31.5526 0 33H16.6167C17.4643 33 18.277 32.6549 18.8763 32.0405C19.4756 31.4262 19.8123 30.593 19.8123 29.7241V25.9176ZM28.1206 14C27.7318 13.9994 27.3519 14.1201 27.0315 14.3459C26.7111 14.5718 26.4652 14.8922 26.3266 15.2646C26.1879 15.6371 26.163 16.0439 26.2551 16.4312C26.3472 16.8185 26.5521 17.1679 26.8424 17.4331L26.427 18.501C26.8201 18.7181 27.1762 18.9991 27.4815 19.3331L28.044 17.931C28.5525 17.9415 29.0442 17.7444 29.4109 17.3831C29.7777 17.0219 29.9894 16.5261 29.9996 16.0048C30.0098 15.4835 29.8175 14.9795 29.4652 14.6035C29.1128 14.2275 28.6292 14.0104 28.1206 14ZM20.4514 17.931C20.56 17.931 20.4514 17.7345 21.0905 19.3266C21.4044 19.0015 21.7616 18.7236 22.1514 18.501L21.7296 17.4331C22.0643 17.1275 22.2839 16.7113 22.3503 16.2569C22.4168 15.8025 22.3258 15.3386 22.0933 14.9458C21.8608 14.553 21.5013 14.2561 21.0775 14.1068C20.6536 13.9574 20.1921 13.965 19.7731 14.1282C19.3542 14.2914 19.0042 14.5999 18.7841 15.0002C18.5639 15.4004 18.4875 15.8671 18.5681 16.319C18.6488 16.771 18.8813 17.1798 19.2253 17.4742C19.5694 17.7687 20.0032 17.9304 20.4514 17.931Z" fill="white"/>
<path d="M4.71228 28.3773C7.98734 30.132 11.1499 27.9242 11.1499 24.9188C11.1482 24.0867 10.8237 23.2891 10.2474 22.7007C9.67108 22.1123 8.88989 21.781 8.07484 21.7793C7.45763 21.781 6.86626 22.0325 6.43041 22.4787C5.99455 22.9249 5.74979 23.5293 5.7498 24.1594C5.7498 24.6316 5.93352 25.0844 6.26054 25.4183C6.58756 25.7522 7.0311 25.9397 7.49358 25.9397C8.96235 25.9397 9.23736 23.7383 7.86859 23.7383C7.70282 23.7383 7.54385 23.6711 7.42664 23.5514C7.30942 23.4317 7.24357 23.2694 7.24357 23.1002C7.24357 21.824 10.0124 22.5068 10.0124 24.6444C10.0124 25.3213 9.74898 25.9705 9.28013 26.4492C8.81128 26.9279 8.17538 27.1968 7.51233 27.1968C6.71881 27.2002 5.9563 26.8825 5.39169 26.3132C4.82709 25.744 4.50638 24.9695 4.49977 24.1594C4.50143 23.1903 4.87927 22.2612 5.55054 21.5759C6.22181 20.8906 7.13177 20.5048 8.08109 20.5032C11.0749 20.5032 13.3062 23.5469 12.0499 26.8841C12.8352 26.5816 13.6617 26.405 14.5 26.3609C15.411 26.3394 16.2897 26.012 17 25.4293C16.9575 23.1819 16.0544 21.0409 14.4841 19.4652C12.9139 17.8896 10.8016 17.0046 8.59985 17C2.21848 17 -0.425314 25.5314 4.71228 28.3773Z" fill="white"/>
<path d="M39.5062 10.1598L39.8307 10.3186L40.1974 10.5469C40.4332 10.6995 40.7586 10.9206 41.144 11.2088C41.9137 11.7845 42.9282 12.6327 43.9405 13.7431C45.9665 15.9655 48 19.2595 48 23.5114C48 27.7635 45.9661 31.0527 43.939 33.2702C42.9263 34.3781 41.9115 35.2238 41.1414 35.7975L40.6118 36.1781L39.9117 36.6343L39.788 36.7075C38.9763 37.1705 37.7946 37.0736 37.1516 36.4893C36.5814 35.9709 36.6247 35.244 37.2083 34.7633L37.6926 34.4461C37.8673 34.3335 38.1279 34.1578 38.4458 33.921C39.0828 33.4463 39.9439 32.7305 40.8077 31.7857C42.5327 29.8981 44.2509 27.1173 44.2509 23.5114C44.2509 19.9052 42.5327 17.1186 40.8062 15.2249C40.0864 14.4352 39.3681 13.8044 38.7797 13.3402L38.1453 12.8642L37.4542 12.4068C36.6455 11.9422 36.5101 11.0922 37.1546 10.5092C37.7278 9.99069 38.7231 9.85694 39.5062 10.1598ZM35.76 15.5597L36.1334 15.748L36.6344 16.0875L36.8371 16.2404C37.2626 16.571 37.8115 17.0552 38.3551 17.6991C39.4479 18.9939 40.5056 20.9202 40.5056 23.4966C40.5056 26.0728 39.4479 28.0012 38.3558 29.2979C37.813 29.9426 37.2641 30.4281 36.8389 30.7594L36.4582 31.0409L36.1947 31.2165L36.0456 31.3075L35.8076 31.3853C35.3113 31.5285 34.1506 31.7619 33.4111 31.0956C32.8395 30.5805 32.8764 29.8566 33.4521 29.374L33.9561 29.0251L34.0852 28.9271C34.3645 28.7096 34.7548 28.3674 35.1503 27.8975C35.9362 26.9647 36.7565 25.515 36.7565 23.4966C36.7565 21.4783 35.9362 20.0314 35.1515 19.1018C34.8548 18.7505 34.5613 18.4709 34.3156 18.2618L33.9585 17.9786L33.7017 17.8031C32.8967 17.3408 32.7643 16.493 33.4085 15.9098C33.9814 15.3911 34.9767 15.2571 35.76 15.5597Z" fill="white"/>
</svg>
