<svg width="110" height="109" viewBox="0 0 110 109" fill="none" xmlns="http://www.w3.org/2000/svg">
<path d="M73.3333 36.705C73.3391 31.1653 72.0896 25.6964 69.6787 20.7088C67.2677 15.7213 63.758 11.3449 59.4131 7.9083C55.0682 4.47171 50.0011 2.06429 44.5924 0.866849C39.1837 -0.330592 33.574 -0.286922 28.1845 0.994579C22.7951 2.27608 17.7661 4.7621 13.4753 8.26591C9.18441 11.7697 5.74324 16.2002 3.41024 21.2247C1.07723 26.2492 -0.0869775 31.7369 0.00506178 37.2759C0.097101 42.8148 1.44299 48.2609 3.94165 53.205C10.45 65.9925 9.16665 78.3217 9.16665 96.2884H50.4167V77.955H68.75V59.6217H77.9167L73.3333 36.705Z" fill="white"/>
<path d="M110 68.7883H77.9167V77.955H110V68.7883Z" fill="white"/>
<path d="M97.5868 38.0485L83.8454 51.7899L90.3272 58.2717L104.069 44.5303L97.5868 38.0485Z" fill="white"/>
<path d="M90.3232 88.4554L83.8413 94.9373L97.5828 108.679L104.065 102.197L90.3232 88.4554Z" fill="white"/>
<path d="M36.6667 77.9551V64.2051H27.5V87.1217H50.4167V77.9551H36.6667Z" fill="white"/>
</svg>
